%FSLAX45Y45*%
G04 Gerber Fmt 4.5, Leading zero omitted, Abs format (unit mm)*
G04 Created by KiCad (PCBNEW (5.0.1)-3) date 2019/2/24 上午 05:12:31*
%MOMM*%
%LPD*%
G01*
G04 APERTURE LIST*
%ADD10C,0.150000*%
%ADD11C,0.200000*%
%ADD12C,0.300000*%
G04 APERTURE END LIST*
D10*
X17703800Y-7454900D02*
X17551400Y-7302500D01*
X17703800Y-8597900D02*
X17703800Y-7454900D01*
X17957800Y-8851900D02*
X17703800Y-8597900D01*
X17957800Y-12128500D02*
X17957800Y-8851900D01*
X17703800Y-12382500D02*
X17957800Y-12128500D01*
X17703800Y-12636500D02*
X17703800Y-12382500D01*
X11099800Y-12636500D02*
X17703800Y-12636500D01*
X11099800Y-7302500D02*
X11099800Y-12636500D01*
X17551400Y-7302500D02*
X11099800Y-7302500D01*
D11*
X12410000Y-8650000D02*
X12430000Y-8670000D01*
X12430000Y-8650000D02*
X12410000Y-8670000D01*
X12410000Y-8750000D02*
X12430000Y-8770000D01*
X12430000Y-8750000D02*
X12410000Y-8770000D01*
X12410000Y-8850000D02*
X12430000Y-8870000D01*
X12430000Y-8850000D02*
X12410000Y-8870000D01*
X12510000Y-8650000D02*
X12530000Y-8670000D01*
X12530000Y-8650000D02*
X12510000Y-8670000D01*
X12510000Y-8750000D02*
X12530000Y-8770000D01*
X12530000Y-8750000D02*
X12510000Y-8770000D01*
X12510000Y-8850000D02*
X12530000Y-8870000D01*
X12530000Y-8850000D02*
X12510000Y-8870000D01*
X12610000Y-8650000D02*
X12630000Y-8670000D01*
X12630000Y-8650000D02*
X12610000Y-8670000D01*
X12610000Y-8750000D02*
X12630000Y-8770000D01*
X12630000Y-8750000D02*
X12610000Y-8770000D01*
X12610000Y-8850000D02*
X12630000Y-8870000D01*
X12630000Y-8850000D02*
X12610000Y-8870000D01*
X12170000Y-8570000D02*
G75*
G03X12170000Y-8570000I-20000J0D01*
G01*
X13839800Y-7776500D02*
G75*
G03X13839800Y-7776500I-20000J0D01*
G01*
X13849800Y-9826500D02*
G75*
G03X13849800Y-9826500I-20000J0D01*
G01*
X13919800Y-7866500D02*
G75*
G03X13919800Y-7866500I-20000J0D01*
G01*
X14009800Y-7956500D02*
G75*
G03X14009800Y-7956500I-20000J0D01*
G01*
X16869800Y-7956500D02*
G75*
G03X16869800Y-7956500I-20000J0D01*
G01*
X16949800Y-7866500D02*
G75*
G03X16949800Y-7866500I-20000J0D01*
G01*
X17029800Y-7776500D02*
G75*
G03X17029800Y-7776500I-20000J0D01*
G01*
X17339800Y-9296500D02*
G75*
G03X17339800Y-9296500I-20000J0D01*
G01*
X17369801Y-8886500D02*
G75*
G03X17369801Y-8886500I-20000J0D01*
G01*
X11720000Y-7920000D02*
X11720000Y-7980000D01*
X11690000Y-7950000D02*
X11750000Y-7950000D01*
X11720000Y-8050000D02*
X11720000Y-8110000D01*
X11690000Y-8080000D02*
X11750000Y-8080000D01*
X11720000Y-8180000D02*
X11720000Y-8240000D01*
X11690000Y-8210000D02*
X11750000Y-8210000D01*
X11720000Y-8310000D02*
X11720000Y-8370000D01*
X11690000Y-8340000D02*
X11750000Y-8340000D01*
X11740000Y-9290000D02*
X11740000Y-9350000D01*
X11710000Y-9320000D02*
X11770000Y-9320000D01*
X11740000Y-9420000D02*
X11740000Y-9480000D01*
X11710000Y-9450000D02*
X11770000Y-9450000D01*
X11740000Y-9550000D02*
X11740000Y-9610000D01*
X11710000Y-9580000D02*
X11770000Y-9580000D01*
X11889800Y-9786500D02*
X11889800Y-9846500D01*
X11859800Y-9816500D02*
X11919800Y-9816500D01*
X11889800Y-9936500D02*
X11889800Y-9996500D01*
X11859800Y-9966500D02*
X11919800Y-9966500D01*
X11889800Y-10081500D02*
X11889800Y-10141500D01*
X11859800Y-10111500D02*
X11919800Y-10111500D01*
X11889800Y-10236500D02*
X11889800Y-10296500D01*
X11859800Y-10266500D02*
X11919800Y-10266500D01*
X11889800Y-10386500D02*
X11889800Y-10446500D01*
X11859800Y-10416500D02*
X11919800Y-10416500D01*
X11889800Y-10636500D02*
X11889800Y-10696500D01*
X11859800Y-10666500D02*
X11919800Y-10666500D01*
X11889800Y-10786500D02*
X11889800Y-10846500D01*
X11859800Y-10816500D02*
X11919800Y-10816500D01*
X11889800Y-10936500D02*
X11889800Y-10996500D01*
X11859800Y-10966500D02*
X11919800Y-10966500D01*
X11889800Y-11086500D02*
X11889800Y-11146500D01*
X11859800Y-11116500D02*
X11919800Y-11116500D01*
X11889800Y-11236500D02*
X11889800Y-11296500D01*
X11859800Y-11266500D02*
X11919800Y-11266500D01*
X12060000Y-8429999D02*
X12060000Y-8489999D01*
X12030000Y-8459999D02*
X12090000Y-8459999D01*
X12130000Y-9420000D02*
X12130000Y-9480000D01*
X12100000Y-9450000D02*
X12160000Y-9450000D01*
X12155000Y-8945000D02*
X12155000Y-9005000D01*
X12125000Y-8975000D02*
X12185000Y-8975000D01*
X12275000Y-9070000D02*
X12275000Y-9130000D01*
X12245000Y-9100000D02*
X12305000Y-9100000D01*
X12640000Y-8320000D02*
X12640000Y-8380000D01*
X12610000Y-8350000D02*
X12670000Y-8350000D01*
X12905000Y-9070000D02*
X12905000Y-9130000D01*
X12875000Y-9100000D02*
X12935000Y-9100000D01*
X13480000Y-8945000D02*
X13480000Y-9005000D01*
X13450000Y-8975000D02*
X13510000Y-8975000D01*
X13570000Y-9075000D02*
X13570000Y-9135000D01*
X13540000Y-9105000D02*
X13600000Y-9105000D01*
X13705000Y-9075000D02*
X13705000Y-9135000D01*
X13675000Y-9105000D02*
X13735000Y-9105000D01*
X14399800Y-11006500D02*
X14399800Y-11066500D01*
X14369800Y-11036500D02*
X14429800Y-11036500D01*
X14539800Y-9116500D02*
X14539800Y-9176500D01*
X14509800Y-9146500D02*
X14569800Y-9146500D01*
X14539800Y-9526500D02*
X14539800Y-9586500D01*
X14509800Y-9556500D02*
X14569800Y-9556500D01*
X14639800Y-9656500D02*
X14639800Y-9716500D01*
X14609800Y-9686500D02*
X14669800Y-9686500D01*
X14659800Y-8976500D02*
X14659800Y-9036500D01*
X14629800Y-9006500D02*
X14689800Y-9006500D01*
X14669800Y-11276500D02*
X14669800Y-11336500D01*
X14639800Y-11306500D02*
X14699800Y-11306500D01*
X14949800Y-10066500D02*
X14949800Y-10126500D01*
X14919800Y-10096500D02*
X14979800Y-10096500D01*
X15459800Y-9556500D02*
X15459800Y-9616500D01*
X15429800Y-9586500D02*
X15489800Y-9586500D01*
X15459800Y-10576500D02*
X15459800Y-10636500D01*
X15429800Y-10606500D02*
X15489800Y-10606500D01*
X15759800Y-9246500D02*
X15759800Y-9306500D01*
X15729800Y-9276500D02*
X15789800Y-9276500D01*
X15909800Y-9186500D02*
X15909800Y-9246500D01*
X15879800Y-9216500D02*
X15939800Y-9216500D01*
X15935001Y-11405001D02*
X15935001Y-11465001D01*
X15905001Y-11435001D02*
X15965001Y-11435001D01*
X15969800Y-10066500D02*
X15969800Y-10126500D01*
X15939800Y-10096500D02*
X15999800Y-10096500D01*
X16225000Y-11695000D02*
X16225000Y-11755000D01*
X16195000Y-11725000D02*
X16255000Y-11725000D01*
X16389801Y-8136500D02*
X16389801Y-8196500D01*
X16359801Y-8166500D02*
X16419801Y-8166500D01*
X16499800Y-9666500D02*
X16499800Y-9726500D01*
X16469800Y-9696500D02*
X16529800Y-9696500D01*
X16589800Y-10926500D02*
X16589800Y-10986500D01*
X16559800Y-10956500D02*
X16619800Y-10956500D01*
X16939800Y-11816500D02*
X16939800Y-11876500D01*
X16909800Y-11846500D02*
X16969800Y-11846500D01*
X17089800Y-9696500D02*
X17089800Y-9756500D01*
X17059800Y-9726500D02*
X17119800Y-9726500D01*
X17179800Y-9266500D02*
X17179800Y-9326500D01*
X17149800Y-9296500D02*
X17209800Y-9296500D01*
X17219800Y-8726500D02*
X17219800Y-8786500D01*
X17189800Y-8756500D02*
X17249800Y-8756500D01*
X17304800Y-9006500D02*
X17304800Y-9066500D01*
X17274800Y-9036500D02*
X17334800Y-9036500D01*
X17334079Y-12002221D02*
X17334079Y-12062221D01*
X17304079Y-12032221D02*
X17364079Y-12032221D01*
X17349800Y-11776500D02*
X17349800Y-11836500D01*
X17319800Y-11806500D02*
X17379800Y-11806500D01*
X11529800Y-7466500D02*
X11529800Y-7526500D01*
X11499800Y-7496500D02*
X11559800Y-7496500D01*
X11549800Y-7531500D02*
X11549800Y-7461500D01*
X11509800Y-7531500D02*
X11509800Y-7461500D01*
X11549800Y-7461500D02*
G75*
G03X11509800Y-7461500I-20000J0D01*
G01*
X11509800Y-7531500D02*
G75*
G03X11549800Y-7531500I20000J0D01*
G01*
X12229800Y-7466500D02*
X12229800Y-7526500D01*
X12199800Y-7496500D02*
X12259800Y-7496500D01*
X12209800Y-7461500D02*
X12209800Y-7531500D01*
X12249800Y-7461500D02*
X12249800Y-7531500D01*
X12209800Y-7531500D02*
G75*
G03X12249800Y-7531500I20000J0D01*
G01*
X12249800Y-7461500D02*
G75*
G03X12209800Y-7461500I-20000J0D01*
G01*
X12763084Y-11584784D02*
X12763084Y-11528215D01*
X12706515Y-11528215D01*
X12706515Y-11584784D01*
X12763084Y-11584784D01*
X12763084Y-11834784D02*
X12763084Y-11778215D01*
X12706515Y-11778215D01*
X12706515Y-11834784D01*
X12763084Y-11834784D01*
X13498084Y-11584784D02*
X13498084Y-11528215D01*
X13441515Y-11528215D01*
X13441515Y-11584784D01*
X13498084Y-11584784D01*
X13498084Y-11834784D02*
X13498084Y-11778215D01*
X13441515Y-11778215D01*
X13441515Y-11834784D01*
X13498084Y-11834784D01*
X12764084Y-10860785D02*
X12764084Y-10804216D01*
X12707515Y-10804216D01*
X12707515Y-10860785D01*
X12764084Y-10860785D01*
X12764084Y-11110785D02*
X12764084Y-11054216D01*
X12707515Y-11054216D01*
X12707515Y-11110785D01*
X12764084Y-11110785D01*
X15248084Y-11644784D02*
X15248084Y-11588215D01*
X15191515Y-11588215D01*
X15191515Y-11644784D01*
X15248084Y-11644784D01*
X15736084Y-11644784D02*
X15736084Y-11588215D01*
X15679515Y-11588215D01*
X15679515Y-11644784D01*
X15736084Y-11644784D01*
X11589484Y-11902784D02*
X11589484Y-11846215D01*
X11532915Y-11846215D01*
X11532915Y-11902784D01*
X11589484Y-11902784D01*
X11531200Y-11764500D02*
X11531200Y-11984500D01*
X11591200Y-11764500D02*
X11591200Y-11984500D01*
X11531200Y-11984500D02*
G75*
G03X11591200Y-11984500I30000J0D01*
G01*
X11591200Y-11764500D02*
G75*
G03X11531200Y-11764500I-30000J0D01*
G01*
X11869484Y-12382784D02*
X11869484Y-12326215D01*
X11812915Y-12326215D01*
X11812915Y-12382784D01*
X11869484Y-12382784D01*
X11731200Y-12384500D02*
X11951200Y-12384500D01*
X11731200Y-12324500D02*
X11951200Y-12324500D01*
X11951200Y-12384500D02*
G75*
G03X11951200Y-12324500I0J30000D01*
G01*
X11731200Y-12324500D02*
G75*
G03X11731200Y-12384500I0J-30000D01*
G01*
X12169484Y-11902784D02*
X12169484Y-11846215D01*
X12112915Y-11846215D01*
X12112915Y-11902784D01*
X12169484Y-11902784D01*
X12111200Y-11744500D02*
X12111200Y-12004500D01*
X12171200Y-11744500D02*
X12171200Y-12004500D01*
X12111200Y-12004500D02*
G75*
G03X12171200Y-12004500I30000J0D01*
G01*
X12171200Y-11744500D02*
G75*
G03X12111200Y-11744500I-30000J0D01*
G01*
X15888084Y-8594785D02*
X15888084Y-8538216D01*
X15831515Y-8538216D01*
X15831515Y-8594785D01*
X15888084Y-8594785D01*
X16376084Y-8594785D02*
X16376084Y-8538216D01*
X16319515Y-8538216D01*
X16319515Y-8594785D01*
X16376084Y-8594785D01*
X11629800Y-7809000D02*
X11672300Y-7766500D01*
X11629800Y-7724000D01*
X11587300Y-7766500D01*
X11629800Y-7809000D01*
X12129800Y-7809000D02*
X12172300Y-7766500D01*
X12129800Y-7724000D01*
X12087300Y-7766500D01*
X12129800Y-7809000D01*
X11666600Y-8657500D02*
X11758600Y-8749500D01*
X11758600Y-8657500D02*
X11666600Y-8749500D01*
X11758600Y-8703500D02*
G75*
G03X11758600Y-8703500I-46000J0D01*
G01*
X11666600Y-8907500D02*
X11758600Y-8999500D01*
X11758600Y-8907500D02*
X11666600Y-8999500D01*
X11758600Y-8953500D02*
G75*
G03X11758600Y-8953500I-46000J0D01*
G01*
X11866600Y-8657500D02*
X11958600Y-8749500D01*
X11958600Y-8657500D02*
X11866600Y-8749500D01*
X11958600Y-8703500D02*
G75*
G03X11958600Y-8703500I-46000J0D01*
G01*
X11866600Y-8907500D02*
X11958600Y-8999500D01*
X11958600Y-8907500D02*
X11866600Y-8999500D01*
X11958600Y-8953500D02*
G75*
G03X11958600Y-8953500I-46000J0D01*
G01*
X13843800Y-12332500D02*
X13943800Y-12432500D01*
X13943800Y-12332500D02*
X13843800Y-12432500D01*
X13893800Y-12332500D02*
X13893800Y-12432500D01*
X13843800Y-12382500D02*
X13943800Y-12382500D01*
X14097800Y-12332500D02*
X14197800Y-12432500D01*
X14197800Y-12332500D02*
X14097800Y-12432500D01*
X14147800Y-12332500D02*
X14147800Y-12432500D01*
X14097800Y-12382500D02*
X14197800Y-12382500D01*
X14351800Y-12332500D02*
X14451800Y-12432500D01*
X14451800Y-12332500D02*
X14351800Y-12432500D01*
X14401800Y-12332500D02*
X14401800Y-12432500D01*
X14351800Y-12382500D02*
X14451800Y-12382500D01*
X14605800Y-12332500D02*
X14705800Y-12432500D01*
X14705800Y-12332500D02*
X14605800Y-12432500D01*
X14655800Y-12332500D02*
X14655800Y-12432500D01*
X14605800Y-12382500D02*
X14705800Y-12382500D01*
X14859800Y-12332500D02*
X14959800Y-12432500D01*
X14959800Y-12332500D02*
X14859800Y-12432500D01*
X14909800Y-12332500D02*
X14909800Y-12432500D01*
X14859800Y-12382500D02*
X14959800Y-12382500D01*
X15113800Y-12332500D02*
X15213800Y-12432500D01*
X15213800Y-12332500D02*
X15113800Y-12432500D01*
X15163800Y-12332500D02*
X15163800Y-12432500D01*
X15113800Y-12382500D02*
X15213800Y-12382500D01*
X15367800Y-12332500D02*
X15467800Y-12432500D01*
X15467800Y-12332500D02*
X15367800Y-12432500D01*
X15417800Y-12332500D02*
X15417800Y-12432500D01*
X15367800Y-12382500D02*
X15467800Y-12382500D01*
X15621800Y-12332500D02*
X15721800Y-12432500D01*
X15721800Y-12332500D02*
X15621800Y-12432500D01*
X15671800Y-12332500D02*
X15671800Y-12432500D01*
X15621800Y-12382500D02*
X15721800Y-12382500D01*
X13354800Y-9883500D02*
X13454800Y-9983500D01*
X13454800Y-9883500D02*
X13354800Y-9983500D01*
X13404800Y-9883500D02*
X13404800Y-9983500D01*
X13354800Y-9933500D02*
X13454800Y-9933500D01*
X13354800Y-10137500D02*
X13454800Y-10237500D01*
X13454800Y-10137500D02*
X13354800Y-10237500D01*
X13404800Y-10137500D02*
X13404800Y-10237500D01*
X13354800Y-10187500D02*
X13454800Y-10187500D01*
X13354800Y-10391500D02*
X13454800Y-10491500D01*
X13454800Y-10391500D02*
X13354800Y-10491500D01*
X13404800Y-10391500D02*
X13404800Y-10491500D01*
X13354800Y-10441500D02*
X13454800Y-10441500D01*
X15621800Y-7506500D02*
X15721800Y-7606500D01*
X15721800Y-7506500D02*
X15621800Y-7606500D01*
X15671800Y-7506500D02*
X15671800Y-7606500D01*
X15621800Y-7556500D02*
X15721800Y-7556500D01*
X15875800Y-7506500D02*
X15975800Y-7606500D01*
X15975800Y-7506500D02*
X15875800Y-7606500D01*
X15925800Y-7506500D02*
X15925800Y-7606500D01*
X15875800Y-7556500D02*
X15975800Y-7556500D01*
X16129800Y-7506500D02*
X16229800Y-7606500D01*
X16229800Y-7506500D02*
X16129800Y-7606500D01*
X16179800Y-7506500D02*
X16179800Y-7606500D01*
X16129800Y-7556500D02*
X16229800Y-7556500D01*
X16383800Y-7506500D02*
X16483800Y-7606500D01*
X16483800Y-7506500D02*
X16383800Y-7606500D01*
X16433800Y-7506500D02*
X16433800Y-7606500D01*
X16383800Y-7556500D02*
X16483800Y-7556500D01*
X16637800Y-7506500D02*
X16737800Y-7606500D01*
X16737800Y-7506500D02*
X16637800Y-7606500D01*
X16687800Y-7506500D02*
X16687800Y-7606500D01*
X16637800Y-7556500D02*
X16737800Y-7556500D01*
X16891800Y-7506500D02*
X16991800Y-7606500D01*
X16991800Y-7506500D02*
X16891800Y-7606500D01*
X16941800Y-7506500D02*
X16941800Y-7606500D01*
X16891800Y-7556500D02*
X16991800Y-7556500D01*
X17145800Y-7506500D02*
X17245800Y-7606500D01*
X17245800Y-7506500D02*
X17145800Y-7606500D01*
X17195800Y-7506500D02*
X17195800Y-7606500D01*
X17145800Y-7556500D02*
X17245800Y-7556500D01*
X17399800Y-7506500D02*
X17499800Y-7606500D01*
X17499800Y-7506500D02*
X17399800Y-7606500D01*
X17449800Y-7506500D02*
X17449800Y-7606500D01*
X17399800Y-7556500D02*
X17499800Y-7556500D01*
X16891800Y-9284500D02*
X16991800Y-9384500D01*
X16991800Y-9284500D02*
X16891800Y-9384500D01*
X16941800Y-9284500D02*
X16941800Y-9384500D01*
X16891800Y-9334500D02*
X16991800Y-9334500D01*
X16891800Y-9538500D02*
X16991800Y-9638500D01*
X16991800Y-9538500D02*
X16891800Y-9638500D01*
X16941800Y-9538500D02*
X16941800Y-9638500D01*
X16891800Y-9588500D02*
X16991800Y-9588500D01*
X16891800Y-9792500D02*
X16991800Y-9892500D01*
X16991800Y-9792500D02*
X16891800Y-9892500D01*
X16941800Y-9792500D02*
X16941800Y-9892500D01*
X16891800Y-9842500D02*
X16991800Y-9842500D01*
X16891800Y-10046500D02*
X16991800Y-10146500D01*
X16991800Y-10046500D02*
X16891800Y-10146500D01*
X16941800Y-10046500D02*
X16941800Y-10146500D01*
X16891800Y-10096500D02*
X16991800Y-10096500D01*
X16891800Y-10300500D02*
X16991800Y-10400500D01*
X16991800Y-10300500D02*
X16891800Y-10400500D01*
X16941800Y-10300500D02*
X16941800Y-10400500D01*
X16891800Y-10350500D02*
X16991800Y-10350500D01*
X16891800Y-10554500D02*
X16991800Y-10654500D01*
X16991800Y-10554500D02*
X16891800Y-10654500D01*
X16941800Y-10554500D02*
X16941800Y-10654500D01*
X16891800Y-10604500D02*
X16991800Y-10604500D01*
X16891800Y-10808500D02*
X16991800Y-10908500D01*
X16991800Y-10808500D02*
X16891800Y-10908500D01*
X16941800Y-10808500D02*
X16941800Y-10908500D01*
X16891800Y-10858500D02*
X16991800Y-10858500D01*
X16891800Y-11062500D02*
X16991800Y-11162500D01*
X16991800Y-11062500D02*
X16891800Y-11162500D01*
X16941800Y-11062500D02*
X16941800Y-11162500D01*
X16891800Y-11112500D02*
X16991800Y-11112500D01*
X16891800Y-11316500D02*
X16991800Y-11416500D01*
X16991800Y-11316500D02*
X16891800Y-11416500D01*
X16941800Y-11316500D02*
X16941800Y-11416500D01*
X16891800Y-11366500D02*
X16991800Y-11366500D01*
X16891800Y-11570500D02*
X16991800Y-11670500D01*
X16991800Y-11570500D02*
X16891800Y-11670500D01*
X16941800Y-11570500D02*
X16941800Y-11670500D01*
X16891800Y-11620500D02*
X16991800Y-11620500D01*
X16129800Y-12332500D02*
X16229800Y-12432500D01*
X16229800Y-12332500D02*
X16129800Y-12432500D01*
X16179800Y-12332500D02*
X16179800Y-12432500D01*
X16129800Y-12382500D02*
X16229800Y-12382500D01*
X16383800Y-12332500D02*
X16483800Y-12432500D01*
X16483800Y-12332500D02*
X16383800Y-12432500D01*
X16433800Y-12332500D02*
X16433800Y-12432500D01*
X16383800Y-12382500D02*
X16483800Y-12382500D01*
X16637800Y-12332500D02*
X16737800Y-12432500D01*
X16737800Y-12332500D02*
X16637800Y-12432500D01*
X16687800Y-12332500D02*
X16687800Y-12432500D01*
X16637800Y-12382500D02*
X16737800Y-12382500D01*
X16891800Y-12332500D02*
X16991800Y-12432500D01*
X16991800Y-12332500D02*
X16891800Y-12432500D01*
X16941800Y-12332500D02*
X16941800Y-12432500D01*
X16891800Y-12382500D02*
X16991800Y-12382500D01*
X17145800Y-12332500D02*
X17245800Y-12432500D01*
X17245800Y-12332500D02*
X17145800Y-12432500D01*
X17195800Y-12332500D02*
X17195800Y-12432500D01*
X17145800Y-12382500D02*
X17245800Y-12382500D01*
X17399800Y-12332500D02*
X17499800Y-12432500D01*
X17499800Y-12332500D02*
X17399800Y-12432500D01*
X17449800Y-12332500D02*
X17449800Y-12432500D01*
X17399800Y-12382500D02*
X17499800Y-12382500D01*
X12929400Y-7506500D02*
X13029400Y-7606500D01*
X13029400Y-7506500D02*
X12929400Y-7606500D01*
X12979400Y-7506500D02*
X12979400Y-7606500D01*
X12929400Y-7556500D02*
X13029400Y-7556500D01*
X13183400Y-7506500D02*
X13283400Y-7606500D01*
X13283400Y-7506500D02*
X13183400Y-7606500D01*
X13233400Y-7506500D02*
X13233400Y-7606500D01*
X13183400Y-7556500D02*
X13283400Y-7556500D01*
X13437400Y-7506500D02*
X13537400Y-7606500D01*
X13537400Y-7506500D02*
X13437400Y-7606500D01*
X13487400Y-7506500D02*
X13487400Y-7606500D01*
X13437400Y-7556500D02*
X13537400Y-7556500D01*
X13691400Y-7506500D02*
X13791400Y-7606500D01*
X13791400Y-7506500D02*
X13691400Y-7606500D01*
X13741400Y-7506500D02*
X13741400Y-7606500D01*
X13691400Y-7556500D02*
X13791400Y-7556500D01*
X13945400Y-7506500D02*
X14045400Y-7606500D01*
X14045400Y-7506500D02*
X13945400Y-7606500D01*
X13995400Y-7506500D02*
X13995400Y-7606500D01*
X13945400Y-7556500D02*
X14045400Y-7556500D01*
X14199400Y-7506500D02*
X14299400Y-7606500D01*
X14299400Y-7506500D02*
X14199400Y-7606500D01*
X14249400Y-7506500D02*
X14249400Y-7606500D01*
X14199400Y-7556500D02*
X14299400Y-7556500D01*
X14453400Y-7506500D02*
X14553400Y-7606500D01*
X14553400Y-7506500D02*
X14453400Y-7606500D01*
X14503400Y-7506500D02*
X14503400Y-7606500D01*
X14453400Y-7556500D02*
X14553400Y-7556500D01*
X14707400Y-7506500D02*
X14807400Y-7606500D01*
X14807400Y-7506500D02*
X14707400Y-7606500D01*
X14757400Y-7506500D02*
X14757400Y-7606500D01*
X14707400Y-7556500D02*
X14807400Y-7556500D01*
X14961400Y-7506500D02*
X15061400Y-7606500D01*
X15061400Y-7506500D02*
X14961400Y-7606500D01*
X15011400Y-7506500D02*
X15011400Y-7606500D01*
X14961400Y-7556500D02*
X15061400Y-7556500D01*
X15215400Y-7506500D02*
X15315400Y-7606500D01*
X15315400Y-7506500D02*
X15215400Y-7606500D01*
X15265400Y-7506500D02*
X15265400Y-7606500D01*
X15215400Y-7556500D02*
X15315400Y-7556500D01*
X14097800Y-11671500D02*
X14197800Y-11771500D01*
X14197800Y-11671500D02*
X14097800Y-11771500D01*
X14147800Y-11671500D02*
X14147800Y-11771500D01*
X14097800Y-11721500D02*
X14197800Y-11721500D01*
X14351800Y-11671500D02*
X14451800Y-11771500D01*
X14451800Y-11671500D02*
X14351800Y-11771500D01*
X14401800Y-11671500D02*
X14401800Y-11771500D01*
X14351800Y-11721500D02*
X14451800Y-11721500D01*
X14605800Y-11671500D02*
X14705800Y-11771500D01*
X14705800Y-11671500D02*
X14605800Y-11771500D01*
X14655800Y-11671500D02*
X14655800Y-11771500D01*
X14605800Y-11721500D02*
X14705800Y-11721500D01*
X17412500Y-9538500D02*
X17512500Y-9638500D01*
X17512500Y-9538500D02*
X17412500Y-9638500D01*
X17462500Y-9538500D02*
X17462500Y-9638500D01*
X17412500Y-9588500D02*
X17512500Y-9588500D01*
X17412500Y-9792500D02*
X17512500Y-9892500D01*
X17512500Y-9792500D02*
X17412500Y-9892500D01*
X17462500Y-9792500D02*
X17462500Y-9892500D01*
X17412500Y-9842500D02*
X17512500Y-9842500D01*
X17412500Y-10046500D02*
X17512500Y-10146500D01*
X17512500Y-10046500D02*
X17412500Y-10146500D01*
X17462500Y-10046500D02*
X17462500Y-10146500D01*
X17412500Y-10096500D02*
X17512500Y-10096500D01*
X17666500Y-9538500D02*
X17766500Y-9638500D01*
X17766500Y-9538500D02*
X17666500Y-9638500D01*
X17716500Y-9538500D02*
X17716500Y-9638500D01*
X17666500Y-9588500D02*
X17766500Y-9588500D01*
X17666500Y-9792500D02*
X17766500Y-9892500D01*
X17766500Y-9792500D02*
X17666500Y-9892500D01*
X17716500Y-9792500D02*
X17716500Y-9892500D01*
X17666500Y-9842500D02*
X17766500Y-9842500D01*
X17666500Y-10046500D02*
X17766500Y-10146500D01*
X17766500Y-10046500D02*
X17666500Y-10146500D01*
X17716500Y-10046500D02*
X17716500Y-10146500D01*
X17666500Y-10096500D02*
X17766500Y-10096500D01*
X17272800Y-10730000D02*
X17372800Y-10830000D01*
X17372800Y-10730000D02*
X17272800Y-10830000D01*
X17322800Y-10730000D02*
X17322800Y-10830000D01*
X17272800Y-10780000D02*
X17372800Y-10780000D01*
X17272800Y-11380000D02*
X17372800Y-11480000D01*
X17372800Y-11380000D02*
X17272800Y-11480000D01*
X17322800Y-11380000D02*
X17322800Y-11480000D01*
X17272800Y-11430000D02*
X17372800Y-11430000D01*
X17722800Y-10730000D02*
X17822800Y-10830000D01*
X17822800Y-10730000D02*
X17722800Y-10830000D01*
X17772800Y-10730000D02*
X17772800Y-10830000D01*
X17722800Y-10780000D02*
X17822800Y-10780000D01*
X17722800Y-11380000D02*
X17822800Y-11480000D01*
X17822800Y-11380000D02*
X17722800Y-11480000D01*
X17772800Y-11380000D02*
X17772800Y-11480000D01*
X17722800Y-11430000D02*
X17822800Y-11430000D01*
X11325100Y-8110000D02*
X11558100Y-8343000D01*
X11558100Y-8110000D02*
X11325100Y-8343000D01*
X11523979Y-8308879D02*
X11523979Y-8144121D01*
X11359221Y-8144121D01*
X11359221Y-8308879D01*
X11523979Y-8308879D01*
X11325100Y-9314000D02*
X11558100Y-9547000D01*
X11558100Y-9314000D02*
X11325100Y-9547000D01*
X11523979Y-9512879D02*
X11523979Y-9348121D01*
X11359221Y-9348121D01*
X11359221Y-9512879D01*
X11523979Y-9512879D01*
X17551400Y-11722100D02*
X17856200Y-12026900D01*
X17856200Y-11722100D02*
X17551400Y-12026900D01*
X17703800Y-12026900D02*
X17856200Y-11874500D01*
X17703800Y-11722100D01*
X17551400Y-11874500D01*
X17703800Y-12026900D01*
X12344400Y-12230100D02*
X12649200Y-12534900D01*
X12649200Y-12230100D02*
X12344400Y-12534900D01*
X12496800Y-12534900D02*
X12649200Y-12382500D01*
X12496800Y-12230100D01*
X12344400Y-12382500D01*
X12496800Y-12534900D01*
X17551400Y-8928100D02*
X17856200Y-9232900D01*
X17856200Y-8928100D02*
X17551400Y-9232900D01*
X17703800Y-9232900D02*
X17856200Y-9080500D01*
X17703800Y-8928100D01*
X17551400Y-9080500D01*
X17703800Y-9232900D01*
X12471400Y-7404100D02*
X12776200Y-7708900D01*
X12776200Y-7404100D02*
X12471400Y-7708900D01*
X12623800Y-7708900D02*
X12776200Y-7556500D01*
X12623800Y-7404100D01*
X12471400Y-7556500D01*
X12623800Y-7708900D01*
D12*
X11378728Y-13109714D02*
X11378728Y-12809714D01*
X11450157Y-12809714D01*
X11493014Y-12824000D01*
X11521586Y-12852571D01*
X11535871Y-12881143D01*
X11550157Y-12938286D01*
X11550157Y-12981143D01*
X11535871Y-13038286D01*
X11521586Y-13066857D01*
X11493014Y-13095429D01*
X11450157Y-13109714D01*
X11378728Y-13109714D01*
X11678728Y-13109714D02*
X11678728Y-12909714D01*
X11678728Y-12966857D02*
X11693014Y-12938286D01*
X11707300Y-12924000D01*
X11735871Y-12909714D01*
X11764443Y-12909714D01*
X11864443Y-13109714D02*
X11864443Y-12909714D01*
X11864443Y-12809714D02*
X11850157Y-12824000D01*
X11864443Y-12838286D01*
X11878728Y-12824000D01*
X11864443Y-12809714D01*
X11864443Y-12838286D01*
X12050157Y-13109714D02*
X12021586Y-13095429D01*
X12007300Y-13066857D01*
X12007300Y-12809714D01*
X12207300Y-13109714D02*
X12178728Y-13095429D01*
X12164443Y-13066857D01*
X12164443Y-12809714D01*
X12550157Y-13109714D02*
X12550157Y-12809714D01*
X12650157Y-13024000D01*
X12750157Y-12809714D01*
X12750157Y-13109714D01*
X13021586Y-13109714D02*
X13021586Y-12952571D01*
X13007300Y-12924000D01*
X12978728Y-12909714D01*
X12921586Y-12909714D01*
X12893014Y-12924000D01*
X13021586Y-13095429D02*
X12993014Y-13109714D01*
X12921586Y-13109714D01*
X12893014Y-13095429D01*
X12878728Y-13066857D01*
X12878728Y-13038286D01*
X12893014Y-13009714D01*
X12921586Y-12995429D01*
X12993014Y-12995429D01*
X13021586Y-12981143D01*
X13164443Y-12909714D02*
X13164443Y-13209714D01*
X13164443Y-12924000D02*
X13193014Y-12909714D01*
X13250157Y-12909714D01*
X13278728Y-12924000D01*
X13293014Y-12938286D01*
X13307300Y-12966857D01*
X13307300Y-13052571D01*
X13293014Y-13081143D01*
X13278728Y-13095429D01*
X13250157Y-13109714D01*
X13193014Y-13109714D01*
X13164443Y-13095429D01*
X13435871Y-13081143D02*
X13450157Y-13095429D01*
X13435871Y-13109714D01*
X13421586Y-13095429D01*
X13435871Y-13081143D01*
X13435871Y-13109714D01*
X13435871Y-12924000D02*
X13450157Y-12938286D01*
X13435871Y-12952571D01*
X13421586Y-12938286D01*
X13435871Y-12924000D01*
X13435871Y-12952571D01*
X11072300Y-13594000D02*
X11092300Y-13614000D01*
X11092300Y-13594000D02*
X11072300Y-13614000D01*
X11435871Y-13439714D02*
X11464443Y-13439714D01*
X11493014Y-13454000D01*
X11507300Y-13468286D01*
X11521586Y-13496857D01*
X11535871Y-13554000D01*
X11535871Y-13625429D01*
X11521586Y-13682571D01*
X11507300Y-13711143D01*
X11493014Y-13725429D01*
X11464443Y-13739714D01*
X11435871Y-13739714D01*
X11407300Y-13725429D01*
X11393014Y-13711143D01*
X11378728Y-13682571D01*
X11364443Y-13625429D01*
X11364443Y-13554000D01*
X11378728Y-13496857D01*
X11393014Y-13468286D01*
X11407300Y-13454000D01*
X11435871Y-13439714D01*
X11664443Y-13711143D02*
X11678728Y-13725429D01*
X11664443Y-13739714D01*
X11650157Y-13725429D01*
X11664443Y-13711143D01*
X11664443Y-13739714D01*
X11793014Y-13468286D02*
X11807300Y-13454000D01*
X11835871Y-13439714D01*
X11907300Y-13439714D01*
X11935871Y-13454000D01*
X11950157Y-13468286D01*
X11964443Y-13496857D01*
X11964443Y-13525429D01*
X11950157Y-13568286D01*
X11778728Y-13739714D01*
X11964443Y-13739714D01*
X12150157Y-13439714D02*
X12178728Y-13439714D01*
X12207300Y-13454000D01*
X12221586Y-13468286D01*
X12235871Y-13496857D01*
X12250157Y-13554000D01*
X12250157Y-13625429D01*
X12235871Y-13682571D01*
X12221586Y-13711143D01*
X12207300Y-13725429D01*
X12178728Y-13739714D01*
X12150157Y-13739714D01*
X12121586Y-13725429D01*
X12107300Y-13711143D01*
X12093014Y-13682571D01*
X12078728Y-13625429D01*
X12078728Y-13554000D01*
X12093014Y-13496857D01*
X12107300Y-13468286D01*
X12121586Y-13454000D01*
X12150157Y-13439714D01*
X12378728Y-13739714D02*
X12378728Y-13539714D01*
X12378728Y-13568286D02*
X12393014Y-13554000D01*
X12421586Y-13539714D01*
X12464443Y-13539714D01*
X12493014Y-13554000D01*
X12507300Y-13582571D01*
X12507300Y-13739714D01*
X12507300Y-13582571D02*
X12521586Y-13554000D01*
X12550157Y-13539714D01*
X12593014Y-13539714D01*
X12621586Y-13554000D01*
X12635871Y-13582571D01*
X12635871Y-13739714D01*
X12778728Y-13739714D02*
X12778728Y-13539714D01*
X12778728Y-13568286D02*
X12793014Y-13554000D01*
X12821586Y-13539714D01*
X12864443Y-13539714D01*
X12893014Y-13554000D01*
X12907300Y-13582571D01*
X12907300Y-13739714D01*
X12907300Y-13582571D02*
X12921586Y-13554000D01*
X12950157Y-13539714D01*
X12993014Y-13539714D01*
X13021586Y-13554000D01*
X13035871Y-13582571D01*
X13035871Y-13739714D01*
X13621586Y-13425429D02*
X13364443Y-13811143D01*
X14007300Y-13439714D02*
X14035871Y-13439714D01*
X14064443Y-13454000D01*
X14078728Y-13468286D01*
X14093014Y-13496857D01*
X14107300Y-13554000D01*
X14107300Y-13625429D01*
X14093014Y-13682571D01*
X14078728Y-13711143D01*
X14064443Y-13725429D01*
X14035871Y-13739714D01*
X14007300Y-13739714D01*
X13978728Y-13725429D01*
X13964443Y-13711143D01*
X13950157Y-13682571D01*
X13935871Y-13625429D01*
X13935871Y-13554000D01*
X13950157Y-13496857D01*
X13964443Y-13468286D01*
X13978728Y-13454000D01*
X14007300Y-13439714D01*
X14235871Y-13711143D02*
X14250157Y-13725429D01*
X14235871Y-13739714D01*
X14221586Y-13725429D01*
X14235871Y-13711143D01*
X14235871Y-13739714D01*
X14435871Y-13439714D02*
X14464443Y-13439714D01*
X14493014Y-13454000D01*
X14507300Y-13468286D01*
X14521586Y-13496857D01*
X14535871Y-13554000D01*
X14535871Y-13625429D01*
X14521586Y-13682571D01*
X14507300Y-13711143D01*
X14493014Y-13725429D01*
X14464443Y-13739714D01*
X14435871Y-13739714D01*
X14407300Y-13725429D01*
X14393014Y-13711143D01*
X14378728Y-13682571D01*
X14364443Y-13625429D01*
X14364443Y-13554000D01*
X14378728Y-13496857D01*
X14393014Y-13468286D01*
X14407300Y-13454000D01*
X14435871Y-13439714D01*
X14721586Y-13439714D02*
X14750157Y-13439714D01*
X14778728Y-13454000D01*
X14793014Y-13468286D01*
X14807300Y-13496857D01*
X14821586Y-13554000D01*
X14821586Y-13625429D01*
X14807300Y-13682571D01*
X14793014Y-13711143D01*
X14778728Y-13725429D01*
X14750157Y-13739714D01*
X14721586Y-13739714D01*
X14693014Y-13725429D01*
X14678728Y-13711143D01*
X14664443Y-13682571D01*
X14650157Y-13625429D01*
X14650157Y-13554000D01*
X14664443Y-13496857D01*
X14678728Y-13468286D01*
X14693014Y-13454000D01*
X14721586Y-13439714D01*
X14993014Y-13568286D02*
X14964443Y-13554000D01*
X14950157Y-13539714D01*
X14935871Y-13511143D01*
X14935871Y-13496857D01*
X14950157Y-13468286D01*
X14964443Y-13454000D01*
X14993014Y-13439714D01*
X15050157Y-13439714D01*
X15078728Y-13454000D01*
X15093014Y-13468286D01*
X15107300Y-13496857D01*
X15107300Y-13511143D01*
X15093014Y-13539714D01*
X15078728Y-13554000D01*
X15050157Y-13568286D01*
X14993014Y-13568286D01*
X14964443Y-13582571D01*
X14950157Y-13596857D01*
X14935871Y-13625429D01*
X14935871Y-13682571D01*
X14950157Y-13711143D01*
X14964443Y-13725429D01*
X14993014Y-13739714D01*
X15050157Y-13739714D01*
X15078728Y-13725429D01*
X15093014Y-13711143D01*
X15107300Y-13682571D01*
X15107300Y-13625429D01*
X15093014Y-13596857D01*
X15078728Y-13582571D01*
X15050157Y-13568286D01*
X15221586Y-13439714D02*
X15221586Y-13496857D01*
X15335871Y-13439714D02*
X15335871Y-13496857D01*
X15778728Y-13854000D02*
X15764443Y-13839714D01*
X15735871Y-13796857D01*
X15721586Y-13768286D01*
X15707300Y-13725429D01*
X15693014Y-13654000D01*
X15693014Y-13596857D01*
X15707300Y-13525429D01*
X15721586Y-13482571D01*
X15735871Y-13454000D01*
X15764443Y-13411143D01*
X15778728Y-13396857D01*
X15907300Y-13739714D02*
X15964443Y-13739714D01*
X15993014Y-13725429D01*
X16007300Y-13711143D01*
X16035871Y-13668286D01*
X16050157Y-13611143D01*
X16050157Y-13496857D01*
X16035871Y-13468286D01*
X16021586Y-13454000D01*
X15993014Y-13439714D01*
X15935871Y-13439714D01*
X15907300Y-13454000D01*
X15893014Y-13468286D01*
X15878728Y-13496857D01*
X15878728Y-13568286D01*
X15893014Y-13596857D01*
X15907300Y-13611143D01*
X15935871Y-13625429D01*
X15993014Y-13625429D01*
X16021586Y-13611143D01*
X16035871Y-13596857D01*
X16050157Y-13568286D01*
X16407300Y-13739714D02*
X16407300Y-13439714D01*
X16535871Y-13739714D02*
X16535871Y-13582571D01*
X16521586Y-13554000D01*
X16493014Y-13539714D01*
X16450157Y-13539714D01*
X16421586Y-13554000D01*
X16407300Y-13568286D01*
X16721586Y-13739714D02*
X16693014Y-13725429D01*
X16678728Y-13711143D01*
X16664443Y-13682571D01*
X16664443Y-13596857D01*
X16678728Y-13568286D01*
X16693014Y-13554000D01*
X16721586Y-13539714D01*
X16764443Y-13539714D01*
X16793014Y-13554000D01*
X16807300Y-13568286D01*
X16821586Y-13596857D01*
X16821586Y-13682571D01*
X16807300Y-13711143D01*
X16793014Y-13725429D01*
X16764443Y-13739714D01*
X16721586Y-13739714D01*
X16993014Y-13739714D02*
X16964443Y-13725429D01*
X16950157Y-13696857D01*
X16950157Y-13439714D01*
X17221586Y-13725429D02*
X17193014Y-13739714D01*
X17135871Y-13739714D01*
X17107300Y-13725429D01*
X17093014Y-13696857D01*
X17093014Y-13582571D01*
X17107300Y-13554000D01*
X17135871Y-13539714D01*
X17193014Y-13539714D01*
X17221586Y-13554000D01*
X17235871Y-13582571D01*
X17235871Y-13611143D01*
X17093014Y-13639714D01*
X17350157Y-13725429D02*
X17378728Y-13739714D01*
X17435871Y-13739714D01*
X17464443Y-13725429D01*
X17478728Y-13696857D01*
X17478728Y-13682571D01*
X17464443Y-13654000D01*
X17435871Y-13639714D01*
X17393014Y-13639714D01*
X17364443Y-13625429D01*
X17350157Y-13596857D01*
X17350157Y-13582571D01*
X17364443Y-13554000D01*
X17393014Y-13539714D01*
X17435871Y-13539714D01*
X17464443Y-13554000D01*
X17578728Y-13854000D02*
X17593014Y-13839714D01*
X17621586Y-13796857D01*
X17635871Y-13768286D01*
X17650157Y-13725429D01*
X17664443Y-13654000D01*
X17664443Y-13596857D01*
X17650157Y-13525429D01*
X17635871Y-13482571D01*
X17621586Y-13454000D01*
X17593014Y-13411143D01*
X17578728Y-13396857D01*
X11092300Y-14000000D02*
G75*
G03X11092300Y-14000000I-20000J0D01*
G01*
X11435871Y-13835714D02*
X11464443Y-13835714D01*
X11493014Y-13850000D01*
X11507300Y-13864286D01*
X11521586Y-13892857D01*
X11535871Y-13950000D01*
X11535871Y-14021429D01*
X11521586Y-14078571D01*
X11507300Y-14107143D01*
X11493014Y-14121429D01*
X11464443Y-14135714D01*
X11435871Y-14135714D01*
X11407300Y-14121429D01*
X11393014Y-14107143D01*
X11378728Y-14078571D01*
X11364443Y-14021429D01*
X11364443Y-13950000D01*
X11378728Y-13892857D01*
X11393014Y-13864286D01*
X11407300Y-13850000D01*
X11435871Y-13835714D01*
X11664443Y-14107143D02*
X11678728Y-14121429D01*
X11664443Y-14135714D01*
X11650157Y-14121429D01*
X11664443Y-14107143D01*
X11664443Y-14135714D01*
X11935871Y-13935714D02*
X11935871Y-14135714D01*
X11864443Y-13821429D02*
X11793014Y-14035714D01*
X11978728Y-14035714D01*
X12150157Y-13835714D02*
X12178728Y-13835714D01*
X12207300Y-13850000D01*
X12221586Y-13864286D01*
X12235871Y-13892857D01*
X12250157Y-13950000D01*
X12250157Y-14021429D01*
X12235871Y-14078571D01*
X12221586Y-14107143D01*
X12207300Y-14121429D01*
X12178728Y-14135714D01*
X12150157Y-14135714D01*
X12121586Y-14121429D01*
X12107300Y-14107143D01*
X12093014Y-14078571D01*
X12078728Y-14021429D01*
X12078728Y-13950000D01*
X12093014Y-13892857D01*
X12107300Y-13864286D01*
X12121586Y-13850000D01*
X12150157Y-13835714D01*
X12378728Y-14135714D02*
X12378728Y-13935714D01*
X12378728Y-13964286D02*
X12393014Y-13950000D01*
X12421586Y-13935714D01*
X12464443Y-13935714D01*
X12493014Y-13950000D01*
X12507300Y-13978571D01*
X12507300Y-14135714D01*
X12507300Y-13978571D02*
X12521586Y-13950000D01*
X12550157Y-13935714D01*
X12593014Y-13935714D01*
X12621586Y-13950000D01*
X12635871Y-13978571D01*
X12635871Y-14135714D01*
X12778728Y-14135714D02*
X12778728Y-13935714D01*
X12778728Y-13964286D02*
X12793014Y-13950000D01*
X12821586Y-13935714D01*
X12864443Y-13935714D01*
X12893014Y-13950000D01*
X12907300Y-13978571D01*
X12907300Y-14135714D01*
X12907300Y-13978571D02*
X12921586Y-13950000D01*
X12950157Y-13935714D01*
X12993014Y-13935714D01*
X13021586Y-13950000D01*
X13035871Y-13978571D01*
X13035871Y-14135714D01*
X13621586Y-13821429D02*
X13364443Y-14207143D01*
X14007300Y-13835714D02*
X14035871Y-13835714D01*
X14064443Y-13850000D01*
X14078728Y-13864286D01*
X14093014Y-13892857D01*
X14107300Y-13950000D01*
X14107300Y-14021429D01*
X14093014Y-14078571D01*
X14078728Y-14107143D01*
X14064443Y-14121429D01*
X14035871Y-14135714D01*
X14007300Y-14135714D01*
X13978728Y-14121429D01*
X13964443Y-14107143D01*
X13950157Y-14078571D01*
X13935871Y-14021429D01*
X13935871Y-13950000D01*
X13950157Y-13892857D01*
X13964443Y-13864286D01*
X13978728Y-13850000D01*
X14007300Y-13835714D01*
X14235871Y-14107143D02*
X14250157Y-14121429D01*
X14235871Y-14135714D01*
X14221586Y-14121429D01*
X14235871Y-14107143D01*
X14235871Y-14135714D01*
X14435871Y-13835714D02*
X14464443Y-13835714D01*
X14493014Y-13850000D01*
X14507300Y-13864286D01*
X14521586Y-13892857D01*
X14535871Y-13950000D01*
X14535871Y-14021429D01*
X14521586Y-14078571D01*
X14507300Y-14107143D01*
X14493014Y-14121429D01*
X14464443Y-14135714D01*
X14435871Y-14135714D01*
X14407300Y-14121429D01*
X14393014Y-14107143D01*
X14378728Y-14078571D01*
X14364443Y-14021429D01*
X14364443Y-13950000D01*
X14378728Y-13892857D01*
X14393014Y-13864286D01*
X14407300Y-13850000D01*
X14435871Y-13835714D01*
X14821586Y-14135714D02*
X14650157Y-14135714D01*
X14735871Y-14135714D02*
X14735871Y-13835714D01*
X14707300Y-13878571D01*
X14678728Y-13907143D01*
X14650157Y-13921429D01*
X15078728Y-13835714D02*
X15021586Y-13835714D01*
X14993014Y-13850000D01*
X14978728Y-13864286D01*
X14950157Y-13907143D01*
X14935871Y-13964286D01*
X14935871Y-14078571D01*
X14950157Y-14107143D01*
X14964443Y-14121429D01*
X14993014Y-14135714D01*
X15050157Y-14135714D01*
X15078728Y-14121429D01*
X15093014Y-14107143D01*
X15107300Y-14078571D01*
X15107300Y-14007143D01*
X15093014Y-13978571D01*
X15078728Y-13964286D01*
X15050157Y-13950000D01*
X14993014Y-13950000D01*
X14964443Y-13964286D01*
X14950157Y-13978571D01*
X14935871Y-14007143D01*
X15221586Y-13835714D02*
X15221586Y-13892857D01*
X15335871Y-13835714D02*
X15335871Y-13892857D01*
X15778728Y-14250000D02*
X15764443Y-14235714D01*
X15735871Y-14192857D01*
X15721586Y-14164286D01*
X15707300Y-14121429D01*
X15693014Y-14050000D01*
X15693014Y-13992857D01*
X15707300Y-13921429D01*
X15721586Y-13878571D01*
X15735871Y-13850000D01*
X15764443Y-13807143D01*
X15778728Y-13792857D01*
X16050157Y-14135714D02*
X15878728Y-14135714D01*
X15964443Y-14135714D02*
X15964443Y-13835714D01*
X15935871Y-13878571D01*
X15907300Y-13907143D01*
X15878728Y-13921429D01*
X16235871Y-13835714D02*
X16264443Y-13835714D01*
X16293014Y-13850000D01*
X16307300Y-13864286D01*
X16321586Y-13892857D01*
X16335871Y-13950000D01*
X16335871Y-14021429D01*
X16321586Y-14078571D01*
X16307300Y-14107143D01*
X16293014Y-14121429D01*
X16264443Y-14135714D01*
X16235871Y-14135714D01*
X16207300Y-14121429D01*
X16193014Y-14107143D01*
X16178728Y-14078571D01*
X16164443Y-14021429D01*
X16164443Y-13950000D01*
X16178728Y-13892857D01*
X16193014Y-13864286D01*
X16207300Y-13850000D01*
X16235871Y-13835714D01*
X16693014Y-14135714D02*
X16693014Y-13835714D01*
X16821586Y-14135714D02*
X16821586Y-13978571D01*
X16807300Y-13950000D01*
X16778728Y-13935714D01*
X16735871Y-13935714D01*
X16707300Y-13950000D01*
X16693014Y-13964286D01*
X17007300Y-14135714D02*
X16978728Y-14121429D01*
X16964443Y-14107143D01*
X16950157Y-14078571D01*
X16950157Y-13992857D01*
X16964443Y-13964286D01*
X16978728Y-13950000D01*
X17007300Y-13935714D01*
X17050157Y-13935714D01*
X17078728Y-13950000D01*
X17093014Y-13964286D01*
X17107300Y-13992857D01*
X17107300Y-14078571D01*
X17093014Y-14107143D01*
X17078728Y-14121429D01*
X17050157Y-14135714D01*
X17007300Y-14135714D01*
X17278728Y-14135714D02*
X17250157Y-14121429D01*
X17235871Y-14092857D01*
X17235871Y-13835714D01*
X17507300Y-14121429D02*
X17478728Y-14135714D01*
X17421586Y-14135714D01*
X17393014Y-14121429D01*
X17378728Y-14092857D01*
X17378728Y-13978571D01*
X17393014Y-13950000D01*
X17421586Y-13935714D01*
X17478728Y-13935714D01*
X17507300Y-13950000D01*
X17521586Y-13978571D01*
X17521586Y-14007143D01*
X17378728Y-14035714D01*
X17635871Y-14121429D02*
X17664443Y-14135714D01*
X17721586Y-14135714D01*
X17750157Y-14121429D01*
X17764443Y-14092857D01*
X17764443Y-14078571D01*
X17750157Y-14050000D01*
X17721586Y-14035714D01*
X17678728Y-14035714D01*
X17650157Y-14021429D01*
X17635871Y-13992857D01*
X17635871Y-13978571D01*
X17650157Y-13950000D01*
X17678728Y-13935714D01*
X17721586Y-13935714D01*
X17750157Y-13950000D01*
X17864443Y-14250000D02*
X17878728Y-14235714D01*
X17907300Y-14192857D01*
X17921586Y-14164286D01*
X17935871Y-14121429D01*
X17950157Y-14050000D01*
X17950157Y-13992857D01*
X17935871Y-13921429D01*
X17921586Y-13878571D01*
X17907300Y-13850000D01*
X17878728Y-13807143D01*
X17864443Y-13792857D01*
X11062300Y-14366000D02*
X11062300Y-14426000D01*
X11032300Y-14396000D02*
X11092300Y-14396000D01*
X11435871Y-14231714D02*
X11464443Y-14231714D01*
X11493014Y-14246000D01*
X11507300Y-14260286D01*
X11521586Y-14288857D01*
X11535871Y-14346000D01*
X11535871Y-14417429D01*
X11521586Y-14474571D01*
X11507300Y-14503143D01*
X11493014Y-14517429D01*
X11464443Y-14531714D01*
X11435871Y-14531714D01*
X11407300Y-14517429D01*
X11393014Y-14503143D01*
X11378728Y-14474571D01*
X11364443Y-14417429D01*
X11364443Y-14346000D01*
X11378728Y-14288857D01*
X11393014Y-14260286D01*
X11407300Y-14246000D01*
X11435871Y-14231714D01*
X11664443Y-14503143D02*
X11678728Y-14517429D01*
X11664443Y-14531714D01*
X11650157Y-14517429D01*
X11664443Y-14503143D01*
X11664443Y-14531714D01*
X11935871Y-14231714D02*
X11878728Y-14231714D01*
X11850157Y-14246000D01*
X11835871Y-14260286D01*
X11807300Y-14303143D01*
X11793014Y-14360286D01*
X11793014Y-14474571D01*
X11807300Y-14503143D01*
X11821586Y-14517429D01*
X11850157Y-14531714D01*
X11907300Y-14531714D01*
X11935871Y-14517429D01*
X11950157Y-14503143D01*
X11964443Y-14474571D01*
X11964443Y-14403143D01*
X11950157Y-14374571D01*
X11935871Y-14360286D01*
X11907300Y-14346000D01*
X11850157Y-14346000D01*
X11821586Y-14360286D01*
X11807300Y-14374571D01*
X11793014Y-14403143D01*
X12150157Y-14231714D02*
X12178728Y-14231714D01*
X12207300Y-14246000D01*
X12221586Y-14260286D01*
X12235871Y-14288857D01*
X12250157Y-14346000D01*
X12250157Y-14417429D01*
X12235871Y-14474571D01*
X12221586Y-14503143D01*
X12207300Y-14517429D01*
X12178728Y-14531714D01*
X12150157Y-14531714D01*
X12121586Y-14517429D01*
X12107300Y-14503143D01*
X12093014Y-14474571D01*
X12078728Y-14417429D01*
X12078728Y-14346000D01*
X12093014Y-14288857D01*
X12107300Y-14260286D01*
X12121586Y-14246000D01*
X12150157Y-14231714D01*
X12378728Y-14531714D02*
X12378728Y-14331714D01*
X12378728Y-14360286D02*
X12393014Y-14346000D01*
X12421586Y-14331714D01*
X12464443Y-14331714D01*
X12493014Y-14346000D01*
X12507300Y-14374571D01*
X12507300Y-14531714D01*
X12507300Y-14374571D02*
X12521586Y-14346000D01*
X12550157Y-14331714D01*
X12593014Y-14331714D01*
X12621586Y-14346000D01*
X12635871Y-14374571D01*
X12635871Y-14531714D01*
X12778728Y-14531714D02*
X12778728Y-14331714D01*
X12778728Y-14360286D02*
X12793014Y-14346000D01*
X12821586Y-14331714D01*
X12864443Y-14331714D01*
X12893014Y-14346000D01*
X12907300Y-14374571D01*
X12907300Y-14531714D01*
X12907300Y-14374571D02*
X12921586Y-14346000D01*
X12950157Y-14331714D01*
X12993014Y-14331714D01*
X13021586Y-14346000D01*
X13035871Y-14374571D01*
X13035871Y-14531714D01*
X13621586Y-14217429D02*
X13364443Y-14603143D01*
X14007300Y-14231714D02*
X14035871Y-14231714D01*
X14064443Y-14246000D01*
X14078728Y-14260286D01*
X14093014Y-14288857D01*
X14107300Y-14346000D01*
X14107300Y-14417429D01*
X14093014Y-14474571D01*
X14078728Y-14503143D01*
X14064443Y-14517429D01*
X14035871Y-14531714D01*
X14007300Y-14531714D01*
X13978728Y-14517429D01*
X13964443Y-14503143D01*
X13950157Y-14474571D01*
X13935871Y-14417429D01*
X13935871Y-14346000D01*
X13950157Y-14288857D01*
X13964443Y-14260286D01*
X13978728Y-14246000D01*
X14007300Y-14231714D01*
X14235871Y-14503143D02*
X14250157Y-14517429D01*
X14235871Y-14531714D01*
X14221586Y-14517429D01*
X14235871Y-14503143D01*
X14235871Y-14531714D01*
X14435871Y-14231714D02*
X14464443Y-14231714D01*
X14493014Y-14246000D01*
X14507300Y-14260286D01*
X14521586Y-14288857D01*
X14535871Y-14346000D01*
X14535871Y-14417429D01*
X14521586Y-14474571D01*
X14507300Y-14503143D01*
X14493014Y-14517429D01*
X14464443Y-14531714D01*
X14435871Y-14531714D01*
X14407300Y-14517429D01*
X14393014Y-14503143D01*
X14378728Y-14474571D01*
X14364443Y-14417429D01*
X14364443Y-14346000D01*
X14378728Y-14288857D01*
X14393014Y-14260286D01*
X14407300Y-14246000D01*
X14435871Y-14231714D01*
X14650157Y-14260286D02*
X14664443Y-14246000D01*
X14693014Y-14231714D01*
X14764443Y-14231714D01*
X14793014Y-14246000D01*
X14807300Y-14260286D01*
X14821586Y-14288857D01*
X14821586Y-14317429D01*
X14807300Y-14360286D01*
X14635871Y-14531714D01*
X14821586Y-14531714D01*
X15078728Y-14331714D02*
X15078728Y-14531714D01*
X15007300Y-14217429D02*
X14935871Y-14431714D01*
X15121586Y-14431714D01*
X15221586Y-14231714D02*
X15221586Y-14288857D01*
X15335871Y-14231714D02*
X15335871Y-14288857D01*
X15778728Y-14646000D02*
X15764443Y-14631714D01*
X15735871Y-14588857D01*
X15721586Y-14560286D01*
X15707300Y-14517429D01*
X15693014Y-14446000D01*
X15693014Y-14388857D01*
X15707300Y-14317429D01*
X15721586Y-14274571D01*
X15735871Y-14246000D01*
X15764443Y-14203143D01*
X15778728Y-14188857D01*
X16035871Y-14231714D02*
X15893014Y-14231714D01*
X15878728Y-14374571D01*
X15893014Y-14360286D01*
X15921586Y-14346000D01*
X15993014Y-14346000D01*
X16021586Y-14360286D01*
X16035871Y-14374571D01*
X16050157Y-14403143D01*
X16050157Y-14474571D01*
X16035871Y-14503143D01*
X16021586Y-14517429D01*
X15993014Y-14531714D01*
X15921586Y-14531714D01*
X15893014Y-14517429D01*
X15878728Y-14503143D01*
X16235871Y-14231714D02*
X16264443Y-14231714D01*
X16293014Y-14246000D01*
X16307300Y-14260286D01*
X16321586Y-14288857D01*
X16335871Y-14346000D01*
X16335871Y-14417429D01*
X16321586Y-14474571D01*
X16307300Y-14503143D01*
X16293014Y-14517429D01*
X16264443Y-14531714D01*
X16235871Y-14531714D01*
X16207300Y-14517429D01*
X16193014Y-14503143D01*
X16178728Y-14474571D01*
X16164443Y-14417429D01*
X16164443Y-14346000D01*
X16178728Y-14288857D01*
X16193014Y-14260286D01*
X16207300Y-14246000D01*
X16235871Y-14231714D01*
X16693014Y-14531714D02*
X16693014Y-14231714D01*
X16821586Y-14531714D02*
X16821586Y-14374571D01*
X16807300Y-14346000D01*
X16778728Y-14331714D01*
X16735871Y-14331714D01*
X16707300Y-14346000D01*
X16693014Y-14360286D01*
X17007300Y-14531714D02*
X16978728Y-14517429D01*
X16964443Y-14503143D01*
X16950157Y-14474571D01*
X16950157Y-14388857D01*
X16964443Y-14360286D01*
X16978728Y-14346000D01*
X17007300Y-14331714D01*
X17050157Y-14331714D01*
X17078728Y-14346000D01*
X17093014Y-14360286D01*
X17107300Y-14388857D01*
X17107300Y-14474571D01*
X17093014Y-14503143D01*
X17078728Y-14517429D01*
X17050157Y-14531714D01*
X17007300Y-14531714D01*
X17278728Y-14531714D02*
X17250157Y-14517429D01*
X17235871Y-14488857D01*
X17235871Y-14231714D01*
X17507300Y-14517429D02*
X17478728Y-14531714D01*
X17421586Y-14531714D01*
X17393014Y-14517429D01*
X17378728Y-14488857D01*
X17378728Y-14374571D01*
X17393014Y-14346000D01*
X17421586Y-14331714D01*
X17478728Y-14331714D01*
X17507300Y-14346000D01*
X17521586Y-14374571D01*
X17521586Y-14403143D01*
X17378728Y-14431714D01*
X17635871Y-14517429D02*
X17664443Y-14531714D01*
X17721586Y-14531714D01*
X17750157Y-14517429D01*
X17764443Y-14488857D01*
X17764443Y-14474571D01*
X17750157Y-14446000D01*
X17721586Y-14431714D01*
X17678728Y-14431714D01*
X17650157Y-14417429D01*
X17635871Y-14388857D01*
X17635871Y-14374571D01*
X17650157Y-14346000D01*
X17678728Y-14331714D01*
X17721586Y-14331714D01*
X17750157Y-14346000D01*
X18121586Y-14417429D02*
X18350157Y-14417429D01*
X18235871Y-14531714D02*
X18235871Y-14303143D01*
X18707300Y-14260286D02*
X18721586Y-14246000D01*
X18750157Y-14231714D01*
X18821586Y-14231714D01*
X18850157Y-14246000D01*
X18864443Y-14260286D01*
X18878728Y-14288857D01*
X18878728Y-14317429D01*
X18864443Y-14360286D01*
X18693014Y-14531714D01*
X18878728Y-14531714D01*
X19221586Y-14517429D02*
X19250157Y-14531714D01*
X19307300Y-14531714D01*
X19335871Y-14517429D01*
X19350157Y-14488857D01*
X19350157Y-14474571D01*
X19335871Y-14446000D01*
X19307300Y-14431714D01*
X19264443Y-14431714D01*
X19235871Y-14417429D01*
X19221586Y-14388857D01*
X19221586Y-14374571D01*
X19235871Y-14346000D01*
X19264443Y-14331714D01*
X19307300Y-14331714D01*
X19335871Y-14346000D01*
X19521586Y-14531714D02*
X19493014Y-14517429D01*
X19478728Y-14488857D01*
X19478728Y-14231714D01*
X19678728Y-14531714D02*
X19650157Y-14517429D01*
X19635871Y-14503143D01*
X19621586Y-14474571D01*
X19621586Y-14388857D01*
X19635871Y-14360286D01*
X19650157Y-14346000D01*
X19678728Y-14331714D01*
X19721586Y-14331714D01*
X19750157Y-14346000D01*
X19764443Y-14360286D01*
X19778728Y-14388857D01*
X19778728Y-14474571D01*
X19764443Y-14503143D01*
X19750157Y-14517429D01*
X19721586Y-14531714D01*
X19678728Y-14531714D01*
X19864443Y-14331714D02*
X19978728Y-14331714D01*
X19907300Y-14231714D02*
X19907300Y-14488857D01*
X19921586Y-14517429D01*
X19950157Y-14531714D01*
X19978728Y-14531714D01*
X20064443Y-14517429D02*
X20093014Y-14531714D01*
X20150157Y-14531714D01*
X20178728Y-14517429D01*
X20193014Y-14488857D01*
X20193014Y-14474571D01*
X20178728Y-14446000D01*
X20150157Y-14431714D01*
X20107300Y-14431714D01*
X20078728Y-14417429D01*
X20064443Y-14388857D01*
X20064443Y-14374571D01*
X20078728Y-14346000D01*
X20107300Y-14331714D01*
X20150157Y-14331714D01*
X20178728Y-14346000D01*
X20293014Y-14646000D02*
X20307300Y-14631714D01*
X20335871Y-14588857D01*
X20350157Y-14560286D01*
X20364443Y-14517429D01*
X20378728Y-14446000D01*
X20378728Y-14388857D01*
X20364443Y-14317429D01*
X20350157Y-14274571D01*
X20335871Y-14246000D01*
X20307300Y-14203143D01*
X20293014Y-14188857D01*
X11080584Y-14820285D02*
X11080584Y-14763716D01*
X11024015Y-14763716D01*
X11024015Y-14820285D01*
X11080584Y-14820285D01*
X11435871Y-14627714D02*
X11464443Y-14627714D01*
X11493014Y-14642000D01*
X11507300Y-14656286D01*
X11521586Y-14684857D01*
X11535871Y-14742000D01*
X11535871Y-14813429D01*
X11521586Y-14870571D01*
X11507300Y-14899143D01*
X11493014Y-14913429D01*
X11464443Y-14927714D01*
X11435871Y-14927714D01*
X11407300Y-14913429D01*
X11393014Y-14899143D01*
X11378728Y-14870571D01*
X11364443Y-14813429D01*
X11364443Y-14742000D01*
X11378728Y-14684857D01*
X11393014Y-14656286D01*
X11407300Y-14642000D01*
X11435871Y-14627714D01*
X11664443Y-14899143D02*
X11678728Y-14913429D01*
X11664443Y-14927714D01*
X11650157Y-14913429D01*
X11664443Y-14899143D01*
X11664443Y-14927714D01*
X11850157Y-14756286D02*
X11821586Y-14742000D01*
X11807300Y-14727714D01*
X11793014Y-14699143D01*
X11793014Y-14684857D01*
X11807300Y-14656286D01*
X11821586Y-14642000D01*
X11850157Y-14627714D01*
X11907300Y-14627714D01*
X11935871Y-14642000D01*
X11950157Y-14656286D01*
X11964443Y-14684857D01*
X11964443Y-14699143D01*
X11950157Y-14727714D01*
X11935871Y-14742000D01*
X11907300Y-14756286D01*
X11850157Y-14756286D01*
X11821586Y-14770571D01*
X11807300Y-14784857D01*
X11793014Y-14813429D01*
X11793014Y-14870571D01*
X11807300Y-14899143D01*
X11821586Y-14913429D01*
X11850157Y-14927714D01*
X11907300Y-14927714D01*
X11935871Y-14913429D01*
X11950157Y-14899143D01*
X11964443Y-14870571D01*
X11964443Y-14813429D01*
X11950157Y-14784857D01*
X11935871Y-14770571D01*
X11907300Y-14756286D01*
X12150157Y-14627714D02*
X12178728Y-14627714D01*
X12207300Y-14642000D01*
X12221586Y-14656286D01*
X12235871Y-14684857D01*
X12250157Y-14742000D01*
X12250157Y-14813429D01*
X12235871Y-14870571D01*
X12221586Y-14899143D01*
X12207300Y-14913429D01*
X12178728Y-14927714D01*
X12150157Y-14927714D01*
X12121586Y-14913429D01*
X12107300Y-14899143D01*
X12093014Y-14870571D01*
X12078728Y-14813429D01*
X12078728Y-14742000D01*
X12093014Y-14684857D01*
X12107300Y-14656286D01*
X12121586Y-14642000D01*
X12150157Y-14627714D01*
X12378728Y-14927714D02*
X12378728Y-14727714D01*
X12378728Y-14756286D02*
X12393014Y-14742000D01*
X12421586Y-14727714D01*
X12464443Y-14727714D01*
X12493014Y-14742000D01*
X12507300Y-14770571D01*
X12507300Y-14927714D01*
X12507300Y-14770571D02*
X12521586Y-14742000D01*
X12550157Y-14727714D01*
X12593014Y-14727714D01*
X12621586Y-14742000D01*
X12635871Y-14770571D01*
X12635871Y-14927714D01*
X12778728Y-14927714D02*
X12778728Y-14727714D01*
X12778728Y-14756286D02*
X12793014Y-14742000D01*
X12821586Y-14727714D01*
X12864443Y-14727714D01*
X12893014Y-14742000D01*
X12907300Y-14770571D01*
X12907300Y-14927714D01*
X12907300Y-14770571D02*
X12921586Y-14742000D01*
X12950157Y-14727714D01*
X12993014Y-14727714D01*
X13021586Y-14742000D01*
X13035871Y-14770571D01*
X13035871Y-14927714D01*
X13621586Y-14613429D02*
X13364443Y-14999143D01*
X14007300Y-14627714D02*
X14035871Y-14627714D01*
X14064443Y-14642000D01*
X14078728Y-14656286D01*
X14093014Y-14684857D01*
X14107300Y-14742000D01*
X14107300Y-14813429D01*
X14093014Y-14870571D01*
X14078728Y-14899143D01*
X14064443Y-14913429D01*
X14035871Y-14927714D01*
X14007300Y-14927714D01*
X13978728Y-14913429D01*
X13964443Y-14899143D01*
X13950157Y-14870571D01*
X13935871Y-14813429D01*
X13935871Y-14742000D01*
X13950157Y-14684857D01*
X13964443Y-14656286D01*
X13978728Y-14642000D01*
X14007300Y-14627714D01*
X14235871Y-14899143D02*
X14250157Y-14913429D01*
X14235871Y-14927714D01*
X14221586Y-14913429D01*
X14235871Y-14899143D01*
X14235871Y-14927714D01*
X14435871Y-14627714D02*
X14464443Y-14627714D01*
X14493014Y-14642000D01*
X14507300Y-14656286D01*
X14521586Y-14684857D01*
X14535871Y-14742000D01*
X14535871Y-14813429D01*
X14521586Y-14870571D01*
X14507300Y-14899143D01*
X14493014Y-14913429D01*
X14464443Y-14927714D01*
X14435871Y-14927714D01*
X14407300Y-14913429D01*
X14393014Y-14899143D01*
X14378728Y-14870571D01*
X14364443Y-14813429D01*
X14364443Y-14742000D01*
X14378728Y-14684857D01*
X14393014Y-14656286D01*
X14407300Y-14642000D01*
X14435871Y-14627714D01*
X14635871Y-14627714D02*
X14821586Y-14627714D01*
X14721586Y-14742000D01*
X14764443Y-14742000D01*
X14793014Y-14756286D01*
X14807300Y-14770571D01*
X14821586Y-14799143D01*
X14821586Y-14870571D01*
X14807300Y-14899143D01*
X14793014Y-14913429D01*
X14764443Y-14927714D01*
X14678728Y-14927714D01*
X14650157Y-14913429D01*
X14635871Y-14899143D01*
X15107300Y-14927714D02*
X14935871Y-14927714D01*
X15021586Y-14927714D02*
X15021586Y-14627714D01*
X14993014Y-14670571D01*
X14964443Y-14699143D01*
X14935871Y-14713429D01*
X15221586Y-14627714D02*
X15221586Y-14684857D01*
X15335871Y-14627714D02*
X15335871Y-14684857D01*
X15778728Y-15042000D02*
X15764443Y-15027714D01*
X15735871Y-14984857D01*
X15721586Y-14956286D01*
X15707300Y-14913429D01*
X15693014Y-14842000D01*
X15693014Y-14784857D01*
X15707300Y-14713429D01*
X15721586Y-14670571D01*
X15735871Y-14642000D01*
X15764443Y-14599143D01*
X15778728Y-14584857D01*
X16050157Y-14927714D02*
X15878728Y-14927714D01*
X15964443Y-14927714D02*
X15964443Y-14627714D01*
X15935871Y-14670571D01*
X15907300Y-14699143D01*
X15878728Y-14713429D01*
X16235871Y-14627714D02*
X16264443Y-14627714D01*
X16293014Y-14642000D01*
X16307300Y-14656286D01*
X16321586Y-14684857D01*
X16335871Y-14742000D01*
X16335871Y-14813429D01*
X16321586Y-14870571D01*
X16307300Y-14899143D01*
X16293014Y-14913429D01*
X16264443Y-14927714D01*
X16235871Y-14927714D01*
X16207300Y-14913429D01*
X16193014Y-14899143D01*
X16178728Y-14870571D01*
X16164443Y-14813429D01*
X16164443Y-14742000D01*
X16178728Y-14684857D01*
X16193014Y-14656286D01*
X16207300Y-14642000D01*
X16235871Y-14627714D01*
X16693014Y-14927714D02*
X16693014Y-14627714D01*
X16821586Y-14927714D02*
X16821586Y-14770571D01*
X16807300Y-14742000D01*
X16778728Y-14727714D01*
X16735871Y-14727714D01*
X16707300Y-14742000D01*
X16693014Y-14756286D01*
X17007300Y-14927714D02*
X16978728Y-14913429D01*
X16964443Y-14899143D01*
X16950157Y-14870571D01*
X16950157Y-14784857D01*
X16964443Y-14756286D01*
X16978728Y-14742000D01*
X17007300Y-14727714D01*
X17050157Y-14727714D01*
X17078728Y-14742000D01*
X17093014Y-14756286D01*
X17107300Y-14784857D01*
X17107300Y-14870571D01*
X17093014Y-14899143D01*
X17078728Y-14913429D01*
X17050157Y-14927714D01*
X17007300Y-14927714D01*
X17278728Y-14927714D02*
X17250157Y-14913429D01*
X17235871Y-14884857D01*
X17235871Y-14627714D01*
X17507300Y-14913429D02*
X17478728Y-14927714D01*
X17421586Y-14927714D01*
X17393014Y-14913429D01*
X17378728Y-14884857D01*
X17378728Y-14770571D01*
X17393014Y-14742000D01*
X17421586Y-14727714D01*
X17478728Y-14727714D01*
X17507300Y-14742000D01*
X17521586Y-14770571D01*
X17521586Y-14799143D01*
X17378728Y-14827714D01*
X17635871Y-14913429D02*
X17664443Y-14927714D01*
X17721586Y-14927714D01*
X17750157Y-14913429D01*
X17764443Y-14884857D01*
X17764443Y-14870571D01*
X17750157Y-14842000D01*
X17721586Y-14827714D01*
X17678728Y-14827714D01*
X17650157Y-14813429D01*
X17635871Y-14784857D01*
X17635871Y-14770571D01*
X17650157Y-14742000D01*
X17678728Y-14727714D01*
X17721586Y-14727714D01*
X17750157Y-14742000D01*
X18121586Y-14813429D02*
X18350157Y-14813429D01*
X18235871Y-14927714D02*
X18235871Y-14699143D01*
X18693014Y-14627714D02*
X18878728Y-14627714D01*
X18778728Y-14742000D01*
X18821586Y-14742000D01*
X18850157Y-14756286D01*
X18864443Y-14770571D01*
X18878728Y-14799143D01*
X18878728Y-14870571D01*
X18864443Y-14899143D01*
X18850157Y-14913429D01*
X18821586Y-14927714D01*
X18735871Y-14927714D01*
X18707300Y-14913429D01*
X18693014Y-14899143D01*
X19221586Y-14913429D02*
X19250157Y-14927714D01*
X19307300Y-14927714D01*
X19335871Y-14913429D01*
X19350157Y-14884857D01*
X19350157Y-14870571D01*
X19335871Y-14842000D01*
X19307300Y-14827714D01*
X19264443Y-14827714D01*
X19235871Y-14813429D01*
X19221586Y-14784857D01*
X19221586Y-14770571D01*
X19235871Y-14742000D01*
X19264443Y-14727714D01*
X19307300Y-14727714D01*
X19335871Y-14742000D01*
X19521586Y-14927714D02*
X19493014Y-14913429D01*
X19478728Y-14884857D01*
X19478728Y-14627714D01*
X19678728Y-14927714D02*
X19650157Y-14913429D01*
X19635871Y-14899143D01*
X19621586Y-14870571D01*
X19621586Y-14784857D01*
X19635871Y-14756286D01*
X19650157Y-14742000D01*
X19678728Y-14727714D01*
X19721586Y-14727714D01*
X19750157Y-14742000D01*
X19764443Y-14756286D01*
X19778728Y-14784857D01*
X19778728Y-14870571D01*
X19764443Y-14899143D01*
X19750157Y-14913429D01*
X19721586Y-14927714D01*
X19678728Y-14927714D01*
X19864443Y-14727714D02*
X19978728Y-14727714D01*
X19907300Y-14627714D02*
X19907300Y-14884857D01*
X19921586Y-14913429D01*
X19950157Y-14927714D01*
X19978728Y-14927714D01*
X20064443Y-14913429D02*
X20093014Y-14927714D01*
X20150157Y-14927714D01*
X20178728Y-14913429D01*
X20193014Y-14884857D01*
X20193014Y-14870571D01*
X20178728Y-14842000D01*
X20150157Y-14827714D01*
X20107300Y-14827714D01*
X20078728Y-14813429D01*
X20064443Y-14784857D01*
X20064443Y-14770571D01*
X20078728Y-14742000D01*
X20107300Y-14727714D01*
X20150157Y-14727714D01*
X20178728Y-14742000D01*
X20293014Y-15042000D02*
X20307300Y-15027714D01*
X20335871Y-14984857D01*
X20350157Y-14956286D01*
X20364443Y-14913429D01*
X20378728Y-14842000D01*
X20378728Y-14784857D01*
X20364443Y-14713429D01*
X20350157Y-14670571D01*
X20335871Y-14642000D01*
X20307300Y-14599143D01*
X20293014Y-14584857D01*
X11049800Y-15230500D02*
X11092300Y-15188000D01*
X11049800Y-15145500D01*
X11007300Y-15188000D01*
X11049800Y-15230500D01*
X11435871Y-15023714D02*
X11464443Y-15023714D01*
X11493014Y-15038000D01*
X11507300Y-15052286D01*
X11521586Y-15080857D01*
X11535871Y-15138000D01*
X11535871Y-15209429D01*
X11521586Y-15266571D01*
X11507300Y-15295143D01*
X11493014Y-15309429D01*
X11464443Y-15323714D01*
X11435871Y-15323714D01*
X11407300Y-15309429D01*
X11393014Y-15295143D01*
X11378728Y-15266571D01*
X11364443Y-15209429D01*
X11364443Y-15138000D01*
X11378728Y-15080857D01*
X11393014Y-15052286D01*
X11407300Y-15038000D01*
X11435871Y-15023714D01*
X11664443Y-15295143D02*
X11678728Y-15309429D01*
X11664443Y-15323714D01*
X11650157Y-15309429D01*
X11664443Y-15295143D01*
X11664443Y-15323714D01*
X11850157Y-15152286D02*
X11821586Y-15138000D01*
X11807300Y-15123714D01*
X11793014Y-15095143D01*
X11793014Y-15080857D01*
X11807300Y-15052286D01*
X11821586Y-15038000D01*
X11850157Y-15023714D01*
X11907300Y-15023714D01*
X11935871Y-15038000D01*
X11950157Y-15052286D01*
X11964443Y-15080857D01*
X11964443Y-15095143D01*
X11950157Y-15123714D01*
X11935871Y-15138000D01*
X11907300Y-15152286D01*
X11850157Y-15152286D01*
X11821586Y-15166571D01*
X11807300Y-15180857D01*
X11793014Y-15209429D01*
X11793014Y-15266571D01*
X11807300Y-15295143D01*
X11821586Y-15309429D01*
X11850157Y-15323714D01*
X11907300Y-15323714D01*
X11935871Y-15309429D01*
X11950157Y-15295143D01*
X11964443Y-15266571D01*
X11964443Y-15209429D01*
X11950157Y-15180857D01*
X11935871Y-15166571D01*
X11907300Y-15152286D01*
X12235871Y-15023714D02*
X12093014Y-15023714D01*
X12078728Y-15166571D01*
X12093014Y-15152286D01*
X12121586Y-15138000D01*
X12193014Y-15138000D01*
X12221586Y-15152286D01*
X12235871Y-15166571D01*
X12250157Y-15195143D01*
X12250157Y-15266571D01*
X12235871Y-15295143D01*
X12221586Y-15309429D01*
X12193014Y-15323714D01*
X12121586Y-15323714D01*
X12093014Y-15309429D01*
X12078728Y-15295143D01*
X12378728Y-15323714D02*
X12378728Y-15123714D01*
X12378728Y-15152286D02*
X12393014Y-15138000D01*
X12421586Y-15123714D01*
X12464443Y-15123714D01*
X12493014Y-15138000D01*
X12507300Y-15166571D01*
X12507300Y-15323714D01*
X12507300Y-15166571D02*
X12521586Y-15138000D01*
X12550157Y-15123714D01*
X12593014Y-15123714D01*
X12621586Y-15138000D01*
X12635871Y-15166571D01*
X12635871Y-15323714D01*
X12778728Y-15323714D02*
X12778728Y-15123714D01*
X12778728Y-15152286D02*
X12793014Y-15138000D01*
X12821586Y-15123714D01*
X12864443Y-15123714D01*
X12893014Y-15138000D01*
X12907300Y-15166571D01*
X12907300Y-15323714D01*
X12907300Y-15166571D02*
X12921586Y-15138000D01*
X12950157Y-15123714D01*
X12993014Y-15123714D01*
X13021586Y-15138000D01*
X13035871Y-15166571D01*
X13035871Y-15323714D01*
X13621586Y-15009429D02*
X13364443Y-15395143D01*
X14007300Y-15023714D02*
X14035871Y-15023714D01*
X14064443Y-15038000D01*
X14078728Y-15052286D01*
X14093014Y-15080857D01*
X14107300Y-15138000D01*
X14107300Y-15209429D01*
X14093014Y-15266571D01*
X14078728Y-15295143D01*
X14064443Y-15309429D01*
X14035871Y-15323714D01*
X14007300Y-15323714D01*
X13978728Y-15309429D01*
X13964443Y-15295143D01*
X13950157Y-15266571D01*
X13935871Y-15209429D01*
X13935871Y-15138000D01*
X13950157Y-15080857D01*
X13964443Y-15052286D01*
X13978728Y-15038000D01*
X14007300Y-15023714D01*
X14235871Y-15295143D02*
X14250157Y-15309429D01*
X14235871Y-15323714D01*
X14221586Y-15309429D01*
X14235871Y-15295143D01*
X14235871Y-15323714D01*
X14435871Y-15023714D02*
X14464443Y-15023714D01*
X14493014Y-15038000D01*
X14507300Y-15052286D01*
X14521586Y-15080857D01*
X14535871Y-15138000D01*
X14535871Y-15209429D01*
X14521586Y-15266571D01*
X14507300Y-15295143D01*
X14493014Y-15309429D01*
X14464443Y-15323714D01*
X14435871Y-15323714D01*
X14407300Y-15309429D01*
X14393014Y-15295143D01*
X14378728Y-15266571D01*
X14364443Y-15209429D01*
X14364443Y-15138000D01*
X14378728Y-15080857D01*
X14393014Y-15052286D01*
X14407300Y-15038000D01*
X14435871Y-15023714D01*
X14635871Y-15023714D02*
X14821586Y-15023714D01*
X14721586Y-15138000D01*
X14764443Y-15138000D01*
X14793014Y-15152286D01*
X14807300Y-15166571D01*
X14821586Y-15195143D01*
X14821586Y-15266571D01*
X14807300Y-15295143D01*
X14793014Y-15309429D01*
X14764443Y-15323714D01*
X14678728Y-15323714D01*
X14650157Y-15309429D01*
X14635871Y-15295143D01*
X14921586Y-15023714D02*
X15107300Y-15023714D01*
X15007300Y-15138000D01*
X15050157Y-15138000D01*
X15078728Y-15152286D01*
X15093014Y-15166571D01*
X15107300Y-15195143D01*
X15107300Y-15266571D01*
X15093014Y-15295143D01*
X15078728Y-15309429D01*
X15050157Y-15323714D01*
X14964443Y-15323714D01*
X14935871Y-15309429D01*
X14921586Y-15295143D01*
X15221586Y-15023714D02*
X15221586Y-15080857D01*
X15335871Y-15023714D02*
X15335871Y-15080857D01*
X15778728Y-15438000D02*
X15764443Y-15423714D01*
X15735871Y-15380857D01*
X15721586Y-15352286D01*
X15707300Y-15309429D01*
X15693014Y-15238000D01*
X15693014Y-15180857D01*
X15707300Y-15109429D01*
X15721586Y-15066571D01*
X15735871Y-15038000D01*
X15764443Y-14995143D01*
X15778728Y-14980857D01*
X15878728Y-15052286D02*
X15893014Y-15038000D01*
X15921586Y-15023714D01*
X15993014Y-15023714D01*
X16021586Y-15038000D01*
X16035871Y-15052286D01*
X16050157Y-15080857D01*
X16050157Y-15109429D01*
X16035871Y-15152286D01*
X15864443Y-15323714D01*
X16050157Y-15323714D01*
X16407300Y-15323714D02*
X16407300Y-15023714D01*
X16535871Y-15323714D02*
X16535871Y-15166571D01*
X16521586Y-15138000D01*
X16493014Y-15123714D01*
X16450157Y-15123714D01*
X16421586Y-15138000D01*
X16407300Y-15152286D01*
X16721586Y-15323714D02*
X16693014Y-15309429D01*
X16678728Y-15295143D01*
X16664443Y-15266571D01*
X16664443Y-15180857D01*
X16678728Y-15152286D01*
X16693014Y-15138000D01*
X16721586Y-15123714D01*
X16764443Y-15123714D01*
X16793014Y-15138000D01*
X16807300Y-15152286D01*
X16821586Y-15180857D01*
X16821586Y-15266571D01*
X16807300Y-15295143D01*
X16793014Y-15309429D01*
X16764443Y-15323714D01*
X16721586Y-15323714D01*
X16993014Y-15323714D02*
X16964443Y-15309429D01*
X16950157Y-15280857D01*
X16950157Y-15023714D01*
X17221586Y-15309429D02*
X17193014Y-15323714D01*
X17135871Y-15323714D01*
X17107300Y-15309429D01*
X17093014Y-15280857D01*
X17093014Y-15166571D01*
X17107300Y-15138000D01*
X17135871Y-15123714D01*
X17193014Y-15123714D01*
X17221586Y-15138000D01*
X17235871Y-15166571D01*
X17235871Y-15195143D01*
X17093014Y-15223714D01*
X17350157Y-15309429D02*
X17378728Y-15323714D01*
X17435871Y-15323714D01*
X17464443Y-15309429D01*
X17478728Y-15280857D01*
X17478728Y-15266571D01*
X17464443Y-15238000D01*
X17435871Y-15223714D01*
X17393014Y-15223714D01*
X17364443Y-15209429D01*
X17350157Y-15180857D01*
X17350157Y-15166571D01*
X17364443Y-15138000D01*
X17393014Y-15123714D01*
X17435871Y-15123714D01*
X17464443Y-15138000D01*
X17578728Y-15438000D02*
X17593014Y-15423714D01*
X17621586Y-15380857D01*
X17635871Y-15352286D01*
X17650157Y-15309429D01*
X17664443Y-15238000D01*
X17664443Y-15180857D01*
X17650157Y-15109429D01*
X17635871Y-15066571D01*
X17621586Y-15038000D01*
X17593014Y-14995143D01*
X17578728Y-14980857D01*
X11000300Y-15538000D02*
X11092300Y-15630000D01*
X11092300Y-15538000D02*
X11000300Y-15630000D01*
X11092300Y-15584000D02*
G75*
G03X11092300Y-15584000I-46000J0D01*
G01*
X11435871Y-15419714D02*
X11464443Y-15419714D01*
X11493014Y-15434000D01*
X11507300Y-15448286D01*
X11521586Y-15476857D01*
X11535871Y-15534000D01*
X11535871Y-15605429D01*
X11521586Y-15662571D01*
X11507300Y-15691143D01*
X11493014Y-15705429D01*
X11464443Y-15719714D01*
X11435871Y-15719714D01*
X11407300Y-15705429D01*
X11393014Y-15691143D01*
X11378728Y-15662571D01*
X11364443Y-15605429D01*
X11364443Y-15534000D01*
X11378728Y-15476857D01*
X11393014Y-15448286D01*
X11407300Y-15434000D01*
X11435871Y-15419714D01*
X11664443Y-15691143D02*
X11678728Y-15705429D01*
X11664443Y-15719714D01*
X11650157Y-15705429D01*
X11664443Y-15691143D01*
X11664443Y-15719714D01*
X11821586Y-15719714D02*
X11878728Y-15719714D01*
X11907300Y-15705429D01*
X11921586Y-15691143D01*
X11950157Y-15648286D01*
X11964443Y-15591143D01*
X11964443Y-15476857D01*
X11950157Y-15448286D01*
X11935871Y-15434000D01*
X11907300Y-15419714D01*
X11850157Y-15419714D01*
X11821586Y-15434000D01*
X11807300Y-15448286D01*
X11793014Y-15476857D01*
X11793014Y-15548286D01*
X11807300Y-15576857D01*
X11821586Y-15591143D01*
X11850157Y-15605429D01*
X11907300Y-15605429D01*
X11935871Y-15591143D01*
X11950157Y-15576857D01*
X11964443Y-15548286D01*
X12078728Y-15448286D02*
X12093014Y-15434000D01*
X12121586Y-15419714D01*
X12193014Y-15419714D01*
X12221586Y-15434000D01*
X12235871Y-15448286D01*
X12250157Y-15476857D01*
X12250157Y-15505429D01*
X12235871Y-15548286D01*
X12064443Y-15719714D01*
X12250157Y-15719714D01*
X12378728Y-15719714D02*
X12378728Y-15519714D01*
X12378728Y-15548286D02*
X12393014Y-15534000D01*
X12421586Y-15519714D01*
X12464443Y-15519714D01*
X12493014Y-15534000D01*
X12507300Y-15562571D01*
X12507300Y-15719714D01*
X12507300Y-15562571D02*
X12521586Y-15534000D01*
X12550157Y-15519714D01*
X12593014Y-15519714D01*
X12621586Y-15534000D01*
X12635871Y-15562571D01*
X12635871Y-15719714D01*
X12778728Y-15719714D02*
X12778728Y-15519714D01*
X12778728Y-15548286D02*
X12793014Y-15534000D01*
X12821586Y-15519714D01*
X12864443Y-15519714D01*
X12893014Y-15534000D01*
X12907300Y-15562571D01*
X12907300Y-15719714D01*
X12907300Y-15562571D02*
X12921586Y-15534000D01*
X12950157Y-15519714D01*
X12993014Y-15519714D01*
X13021586Y-15534000D01*
X13035871Y-15562571D01*
X13035871Y-15719714D01*
X13621586Y-15405429D02*
X13364443Y-15791143D01*
X14007300Y-15419714D02*
X14035871Y-15419714D01*
X14064443Y-15434000D01*
X14078728Y-15448286D01*
X14093014Y-15476857D01*
X14107300Y-15534000D01*
X14107300Y-15605429D01*
X14093014Y-15662571D01*
X14078728Y-15691143D01*
X14064443Y-15705429D01*
X14035871Y-15719714D01*
X14007300Y-15719714D01*
X13978728Y-15705429D01*
X13964443Y-15691143D01*
X13950157Y-15662571D01*
X13935871Y-15605429D01*
X13935871Y-15534000D01*
X13950157Y-15476857D01*
X13964443Y-15448286D01*
X13978728Y-15434000D01*
X14007300Y-15419714D01*
X14235871Y-15691143D02*
X14250157Y-15705429D01*
X14235871Y-15719714D01*
X14221586Y-15705429D01*
X14235871Y-15691143D01*
X14235871Y-15719714D01*
X14435871Y-15419714D02*
X14464443Y-15419714D01*
X14493014Y-15434000D01*
X14507300Y-15448286D01*
X14521586Y-15476857D01*
X14535871Y-15534000D01*
X14535871Y-15605429D01*
X14521586Y-15662571D01*
X14507300Y-15691143D01*
X14493014Y-15705429D01*
X14464443Y-15719714D01*
X14435871Y-15719714D01*
X14407300Y-15705429D01*
X14393014Y-15691143D01*
X14378728Y-15662571D01*
X14364443Y-15605429D01*
X14364443Y-15534000D01*
X14378728Y-15476857D01*
X14393014Y-15448286D01*
X14407300Y-15434000D01*
X14435871Y-15419714D01*
X14635871Y-15419714D02*
X14821586Y-15419714D01*
X14721586Y-15534000D01*
X14764443Y-15534000D01*
X14793014Y-15548286D01*
X14807300Y-15562571D01*
X14821586Y-15591143D01*
X14821586Y-15662571D01*
X14807300Y-15691143D01*
X14793014Y-15705429D01*
X14764443Y-15719714D01*
X14678728Y-15719714D01*
X14650157Y-15705429D01*
X14635871Y-15691143D01*
X15078728Y-15419714D02*
X15021586Y-15419714D01*
X14993014Y-15434000D01*
X14978728Y-15448286D01*
X14950157Y-15491143D01*
X14935871Y-15548286D01*
X14935871Y-15662571D01*
X14950157Y-15691143D01*
X14964443Y-15705429D01*
X14993014Y-15719714D01*
X15050157Y-15719714D01*
X15078728Y-15705429D01*
X15093014Y-15691143D01*
X15107300Y-15662571D01*
X15107300Y-15591143D01*
X15093014Y-15562571D01*
X15078728Y-15548286D01*
X15050157Y-15534000D01*
X14993014Y-15534000D01*
X14964443Y-15548286D01*
X14950157Y-15562571D01*
X14935871Y-15591143D01*
X15221586Y-15419714D02*
X15221586Y-15476857D01*
X15335871Y-15419714D02*
X15335871Y-15476857D01*
X15778728Y-15834000D02*
X15764443Y-15819714D01*
X15735871Y-15776857D01*
X15721586Y-15748286D01*
X15707300Y-15705429D01*
X15693014Y-15634000D01*
X15693014Y-15576857D01*
X15707300Y-15505429D01*
X15721586Y-15462571D01*
X15735871Y-15434000D01*
X15764443Y-15391143D01*
X15778728Y-15376857D01*
X16021586Y-15519714D02*
X16021586Y-15719714D01*
X15950157Y-15405429D02*
X15878728Y-15619714D01*
X16064443Y-15619714D01*
X16407300Y-15719714D02*
X16407300Y-15419714D01*
X16535871Y-15719714D02*
X16535871Y-15562571D01*
X16521586Y-15534000D01*
X16493014Y-15519714D01*
X16450157Y-15519714D01*
X16421586Y-15534000D01*
X16407300Y-15548286D01*
X16721586Y-15719714D02*
X16693014Y-15705429D01*
X16678728Y-15691143D01*
X16664443Y-15662571D01*
X16664443Y-15576857D01*
X16678728Y-15548286D01*
X16693014Y-15534000D01*
X16721586Y-15519714D01*
X16764443Y-15519714D01*
X16793014Y-15534000D01*
X16807300Y-15548286D01*
X16821586Y-15576857D01*
X16821586Y-15662571D01*
X16807300Y-15691143D01*
X16793014Y-15705429D01*
X16764443Y-15719714D01*
X16721586Y-15719714D01*
X16993014Y-15719714D02*
X16964443Y-15705429D01*
X16950157Y-15676857D01*
X16950157Y-15419714D01*
X17221586Y-15705429D02*
X17193014Y-15719714D01*
X17135871Y-15719714D01*
X17107300Y-15705429D01*
X17093014Y-15676857D01*
X17093014Y-15562571D01*
X17107300Y-15534000D01*
X17135871Y-15519714D01*
X17193014Y-15519714D01*
X17221586Y-15534000D01*
X17235871Y-15562571D01*
X17235871Y-15591143D01*
X17093014Y-15619714D01*
X17350157Y-15705429D02*
X17378728Y-15719714D01*
X17435871Y-15719714D01*
X17464443Y-15705429D01*
X17478728Y-15676857D01*
X17478728Y-15662571D01*
X17464443Y-15634000D01*
X17435871Y-15619714D01*
X17393014Y-15619714D01*
X17364443Y-15605429D01*
X17350157Y-15576857D01*
X17350157Y-15562571D01*
X17364443Y-15534000D01*
X17393014Y-15519714D01*
X17435871Y-15519714D01*
X17464443Y-15534000D01*
X17578728Y-15834000D02*
X17593014Y-15819714D01*
X17621586Y-15776857D01*
X17635871Y-15748286D01*
X17650157Y-15705429D01*
X17664443Y-15634000D01*
X17664443Y-15576857D01*
X17650157Y-15505429D01*
X17635871Y-15462571D01*
X17621586Y-15434000D01*
X17593014Y-15391143D01*
X17578728Y-15376857D01*
X10992300Y-15930000D02*
X11092300Y-16030000D01*
X11092300Y-15930000D02*
X10992300Y-16030000D01*
X11042300Y-15930000D02*
X11042300Y-16030000D01*
X10992300Y-15980000D02*
X11092300Y-15980000D01*
X11535871Y-16115714D02*
X11364443Y-16115714D01*
X11450157Y-16115714D02*
X11450157Y-15815714D01*
X11421586Y-15858571D01*
X11393014Y-15887143D01*
X11364443Y-15901429D01*
X11664443Y-16087143D02*
X11678728Y-16101429D01*
X11664443Y-16115714D01*
X11650157Y-16101429D01*
X11664443Y-16087143D01*
X11664443Y-16115714D01*
X11864443Y-15815714D02*
X11893014Y-15815714D01*
X11921586Y-15830000D01*
X11935871Y-15844286D01*
X11950157Y-15872857D01*
X11964443Y-15930000D01*
X11964443Y-16001429D01*
X11950157Y-16058571D01*
X11935871Y-16087143D01*
X11921586Y-16101429D01*
X11893014Y-16115714D01*
X11864443Y-16115714D01*
X11835871Y-16101429D01*
X11821586Y-16087143D01*
X11807300Y-16058571D01*
X11793014Y-16001429D01*
X11793014Y-15930000D01*
X11807300Y-15872857D01*
X11821586Y-15844286D01*
X11835871Y-15830000D01*
X11864443Y-15815714D01*
X12150157Y-15815714D02*
X12178728Y-15815714D01*
X12207300Y-15830000D01*
X12221586Y-15844286D01*
X12235871Y-15872857D01*
X12250157Y-15930000D01*
X12250157Y-16001429D01*
X12235871Y-16058571D01*
X12221586Y-16087143D01*
X12207300Y-16101429D01*
X12178728Y-16115714D01*
X12150157Y-16115714D01*
X12121586Y-16101429D01*
X12107300Y-16087143D01*
X12093014Y-16058571D01*
X12078728Y-16001429D01*
X12078728Y-15930000D01*
X12093014Y-15872857D01*
X12107300Y-15844286D01*
X12121586Y-15830000D01*
X12150157Y-15815714D01*
X12378728Y-16115714D02*
X12378728Y-15915714D01*
X12378728Y-15944286D02*
X12393014Y-15930000D01*
X12421586Y-15915714D01*
X12464443Y-15915714D01*
X12493014Y-15930000D01*
X12507300Y-15958571D01*
X12507300Y-16115714D01*
X12507300Y-15958571D02*
X12521586Y-15930000D01*
X12550157Y-15915714D01*
X12593014Y-15915714D01*
X12621586Y-15930000D01*
X12635871Y-15958571D01*
X12635871Y-16115714D01*
X12778728Y-16115714D02*
X12778728Y-15915714D01*
X12778728Y-15944286D02*
X12793014Y-15930000D01*
X12821586Y-15915714D01*
X12864443Y-15915714D01*
X12893014Y-15930000D01*
X12907300Y-15958571D01*
X12907300Y-16115714D01*
X12907300Y-15958571D02*
X12921586Y-15930000D01*
X12950157Y-15915714D01*
X12993014Y-15915714D01*
X13021586Y-15930000D01*
X13035871Y-15958571D01*
X13035871Y-16115714D01*
X13621586Y-15801429D02*
X13364443Y-16187143D01*
X14007300Y-15815714D02*
X14035871Y-15815714D01*
X14064443Y-15830000D01*
X14078728Y-15844286D01*
X14093014Y-15872857D01*
X14107300Y-15930000D01*
X14107300Y-16001429D01*
X14093014Y-16058571D01*
X14078728Y-16087143D01*
X14064443Y-16101429D01*
X14035871Y-16115714D01*
X14007300Y-16115714D01*
X13978728Y-16101429D01*
X13964443Y-16087143D01*
X13950157Y-16058571D01*
X13935871Y-16001429D01*
X13935871Y-15930000D01*
X13950157Y-15872857D01*
X13964443Y-15844286D01*
X13978728Y-15830000D01*
X14007300Y-15815714D01*
X14235871Y-16087143D02*
X14250157Y-16101429D01*
X14235871Y-16115714D01*
X14221586Y-16101429D01*
X14235871Y-16087143D01*
X14235871Y-16115714D01*
X14435871Y-15815714D02*
X14464443Y-15815714D01*
X14493014Y-15830000D01*
X14507300Y-15844286D01*
X14521586Y-15872857D01*
X14535871Y-15930000D01*
X14535871Y-16001429D01*
X14521586Y-16058571D01*
X14507300Y-16087143D01*
X14493014Y-16101429D01*
X14464443Y-16115714D01*
X14435871Y-16115714D01*
X14407300Y-16101429D01*
X14393014Y-16087143D01*
X14378728Y-16058571D01*
X14364443Y-16001429D01*
X14364443Y-15930000D01*
X14378728Y-15872857D01*
X14393014Y-15844286D01*
X14407300Y-15830000D01*
X14435871Y-15815714D01*
X14635871Y-15815714D02*
X14821586Y-15815714D01*
X14721586Y-15930000D01*
X14764443Y-15930000D01*
X14793014Y-15944286D01*
X14807300Y-15958571D01*
X14821586Y-15987143D01*
X14821586Y-16058571D01*
X14807300Y-16087143D01*
X14793014Y-16101429D01*
X14764443Y-16115714D01*
X14678728Y-16115714D01*
X14650157Y-16101429D01*
X14635871Y-16087143D01*
X14964443Y-16115714D02*
X15021586Y-16115714D01*
X15050157Y-16101429D01*
X15064443Y-16087143D01*
X15093014Y-16044286D01*
X15107300Y-15987143D01*
X15107300Y-15872857D01*
X15093014Y-15844286D01*
X15078728Y-15830000D01*
X15050157Y-15815714D01*
X14993014Y-15815714D01*
X14964443Y-15830000D01*
X14950157Y-15844286D01*
X14935871Y-15872857D01*
X14935871Y-15944286D01*
X14950157Y-15972857D01*
X14964443Y-15987143D01*
X14993014Y-16001429D01*
X15050157Y-16001429D01*
X15078728Y-15987143D01*
X15093014Y-15972857D01*
X15107300Y-15944286D01*
X15221586Y-15815714D02*
X15221586Y-15872857D01*
X15335871Y-15815714D02*
X15335871Y-15872857D01*
X15778728Y-16230000D02*
X15764443Y-16215714D01*
X15735871Y-16172857D01*
X15721586Y-16144286D01*
X15707300Y-16101429D01*
X15693014Y-16030000D01*
X15693014Y-15972857D01*
X15707300Y-15901429D01*
X15721586Y-15858571D01*
X15735871Y-15830000D01*
X15764443Y-15787143D01*
X15778728Y-15772857D01*
X16035871Y-15815714D02*
X15893014Y-15815714D01*
X15878728Y-15958571D01*
X15893014Y-15944286D01*
X15921586Y-15930000D01*
X15993014Y-15930000D01*
X16021586Y-15944286D01*
X16035871Y-15958571D01*
X16050157Y-15987143D01*
X16050157Y-16058571D01*
X16035871Y-16087143D01*
X16021586Y-16101429D01*
X15993014Y-16115714D01*
X15921586Y-16115714D01*
X15893014Y-16101429D01*
X15878728Y-16087143D01*
X16221586Y-15944286D02*
X16193014Y-15930000D01*
X16178728Y-15915714D01*
X16164443Y-15887143D01*
X16164443Y-15872857D01*
X16178728Y-15844286D01*
X16193014Y-15830000D01*
X16221586Y-15815714D01*
X16278728Y-15815714D01*
X16307300Y-15830000D01*
X16321586Y-15844286D01*
X16335871Y-15872857D01*
X16335871Y-15887143D01*
X16321586Y-15915714D01*
X16307300Y-15930000D01*
X16278728Y-15944286D01*
X16221586Y-15944286D01*
X16193014Y-15958571D01*
X16178728Y-15972857D01*
X16164443Y-16001429D01*
X16164443Y-16058571D01*
X16178728Y-16087143D01*
X16193014Y-16101429D01*
X16221586Y-16115714D01*
X16278728Y-16115714D01*
X16307300Y-16101429D01*
X16321586Y-16087143D01*
X16335871Y-16058571D01*
X16335871Y-16001429D01*
X16321586Y-15972857D01*
X16307300Y-15958571D01*
X16278728Y-15944286D01*
X16693014Y-16115714D02*
X16693014Y-15815714D01*
X16821586Y-16115714D02*
X16821586Y-15958571D01*
X16807300Y-15930000D01*
X16778728Y-15915714D01*
X16735871Y-15915714D01*
X16707300Y-15930000D01*
X16693014Y-15944286D01*
X17007300Y-16115714D02*
X16978728Y-16101429D01*
X16964443Y-16087143D01*
X16950157Y-16058571D01*
X16950157Y-15972857D01*
X16964443Y-15944286D01*
X16978728Y-15930000D01*
X17007300Y-15915714D01*
X17050157Y-15915714D01*
X17078728Y-15930000D01*
X17093014Y-15944286D01*
X17107300Y-15972857D01*
X17107300Y-16058571D01*
X17093014Y-16087143D01*
X17078728Y-16101429D01*
X17050157Y-16115714D01*
X17007300Y-16115714D01*
X17278728Y-16115714D02*
X17250157Y-16101429D01*
X17235871Y-16072857D01*
X17235871Y-15815714D01*
X17507300Y-16101429D02*
X17478728Y-16115714D01*
X17421586Y-16115714D01*
X17393014Y-16101429D01*
X17378728Y-16072857D01*
X17378728Y-15958571D01*
X17393014Y-15930000D01*
X17421586Y-15915714D01*
X17478728Y-15915714D01*
X17507300Y-15930000D01*
X17521586Y-15958571D01*
X17521586Y-15987143D01*
X17378728Y-16015714D01*
X17635871Y-16101429D02*
X17664443Y-16115714D01*
X17721586Y-16115714D01*
X17750157Y-16101429D01*
X17764443Y-16072857D01*
X17764443Y-16058571D01*
X17750157Y-16030000D01*
X17721586Y-16015714D01*
X17678728Y-16015714D01*
X17650157Y-16001429D01*
X17635871Y-15972857D01*
X17635871Y-15958571D01*
X17650157Y-15930000D01*
X17678728Y-15915714D01*
X17721586Y-15915714D01*
X17750157Y-15930000D01*
X17864443Y-16230000D02*
X17878728Y-16215714D01*
X17907300Y-16172857D01*
X17921586Y-16144286D01*
X17935871Y-16101429D01*
X17950157Y-16030000D01*
X17950157Y-15972857D01*
X17935871Y-15901429D01*
X17921586Y-15858571D01*
X17907300Y-15830000D01*
X17878728Y-15787143D01*
X17864443Y-15772857D01*
X10859300Y-16259500D02*
X11092300Y-16492500D01*
X11092300Y-16259500D02*
X10859300Y-16492500D01*
X11058179Y-16458379D02*
X11058179Y-16293621D01*
X10893421Y-16293621D01*
X10893421Y-16458379D01*
X11058179Y-16458379D01*
X11364443Y-16240286D02*
X11378728Y-16226000D01*
X11407300Y-16211714D01*
X11478728Y-16211714D01*
X11507300Y-16226000D01*
X11521586Y-16240286D01*
X11535871Y-16268857D01*
X11535871Y-16297429D01*
X11521586Y-16340286D01*
X11350157Y-16511714D01*
X11535871Y-16511714D01*
X11664443Y-16483143D02*
X11678728Y-16497429D01*
X11664443Y-16511714D01*
X11650157Y-16497429D01*
X11664443Y-16483143D01*
X11664443Y-16511714D01*
X11778728Y-16211714D02*
X11964443Y-16211714D01*
X11864443Y-16326000D01*
X11907300Y-16326000D01*
X11935871Y-16340286D01*
X11950157Y-16354571D01*
X11964443Y-16383143D01*
X11964443Y-16454571D01*
X11950157Y-16483143D01*
X11935871Y-16497429D01*
X11907300Y-16511714D01*
X11821586Y-16511714D01*
X11793014Y-16497429D01*
X11778728Y-16483143D01*
X12064443Y-16211714D02*
X12250157Y-16211714D01*
X12150157Y-16326000D01*
X12193014Y-16326000D01*
X12221586Y-16340286D01*
X12235871Y-16354571D01*
X12250157Y-16383143D01*
X12250157Y-16454571D01*
X12235871Y-16483143D01*
X12221586Y-16497429D01*
X12193014Y-16511714D01*
X12107300Y-16511714D01*
X12078728Y-16497429D01*
X12064443Y-16483143D01*
X12378728Y-16511714D02*
X12378728Y-16311714D01*
X12378728Y-16340286D02*
X12393014Y-16326000D01*
X12421586Y-16311714D01*
X12464443Y-16311714D01*
X12493014Y-16326000D01*
X12507300Y-16354571D01*
X12507300Y-16511714D01*
X12507300Y-16354571D02*
X12521586Y-16326000D01*
X12550157Y-16311714D01*
X12593014Y-16311714D01*
X12621586Y-16326000D01*
X12635871Y-16354571D01*
X12635871Y-16511714D01*
X12778728Y-16511714D02*
X12778728Y-16311714D01*
X12778728Y-16340286D02*
X12793014Y-16326000D01*
X12821586Y-16311714D01*
X12864443Y-16311714D01*
X12893014Y-16326000D01*
X12907300Y-16354571D01*
X12907300Y-16511714D01*
X12907300Y-16354571D02*
X12921586Y-16326000D01*
X12950157Y-16311714D01*
X12993014Y-16311714D01*
X13021586Y-16326000D01*
X13035871Y-16354571D01*
X13035871Y-16511714D01*
X13621586Y-16197429D02*
X13364443Y-16583143D01*
X14007300Y-16211714D02*
X14035871Y-16211714D01*
X14064443Y-16226000D01*
X14078728Y-16240286D01*
X14093014Y-16268857D01*
X14107300Y-16326000D01*
X14107300Y-16397429D01*
X14093014Y-16454571D01*
X14078728Y-16483143D01*
X14064443Y-16497429D01*
X14035871Y-16511714D01*
X14007300Y-16511714D01*
X13978728Y-16497429D01*
X13964443Y-16483143D01*
X13950157Y-16454571D01*
X13935871Y-16397429D01*
X13935871Y-16326000D01*
X13950157Y-16268857D01*
X13964443Y-16240286D01*
X13978728Y-16226000D01*
X14007300Y-16211714D01*
X14235871Y-16483143D02*
X14250157Y-16497429D01*
X14235871Y-16511714D01*
X14221586Y-16497429D01*
X14235871Y-16483143D01*
X14235871Y-16511714D01*
X14435871Y-16211714D02*
X14464443Y-16211714D01*
X14493014Y-16226000D01*
X14507300Y-16240286D01*
X14521586Y-16268857D01*
X14535871Y-16326000D01*
X14535871Y-16397429D01*
X14521586Y-16454571D01*
X14507300Y-16483143D01*
X14493014Y-16497429D01*
X14464443Y-16511714D01*
X14435871Y-16511714D01*
X14407300Y-16497429D01*
X14393014Y-16483143D01*
X14378728Y-16454571D01*
X14364443Y-16397429D01*
X14364443Y-16326000D01*
X14378728Y-16268857D01*
X14393014Y-16240286D01*
X14407300Y-16226000D01*
X14435871Y-16211714D01*
X14678728Y-16511714D02*
X14735871Y-16511714D01*
X14764443Y-16497429D01*
X14778728Y-16483143D01*
X14807300Y-16440286D01*
X14821586Y-16383143D01*
X14821586Y-16268857D01*
X14807300Y-16240286D01*
X14793014Y-16226000D01*
X14764443Y-16211714D01*
X14707300Y-16211714D01*
X14678728Y-16226000D01*
X14664443Y-16240286D01*
X14650157Y-16268857D01*
X14650157Y-16340286D01*
X14664443Y-16368857D01*
X14678728Y-16383143D01*
X14707300Y-16397429D01*
X14764443Y-16397429D01*
X14793014Y-16383143D01*
X14807300Y-16368857D01*
X14821586Y-16340286D01*
X14935871Y-16240286D02*
X14950157Y-16226000D01*
X14978728Y-16211714D01*
X15050157Y-16211714D01*
X15078728Y-16226000D01*
X15093014Y-16240286D01*
X15107300Y-16268857D01*
X15107300Y-16297429D01*
X15093014Y-16340286D01*
X14921586Y-16511714D01*
X15107300Y-16511714D01*
X15221586Y-16211714D02*
X15221586Y-16268857D01*
X15335871Y-16211714D02*
X15335871Y-16268857D01*
X15778728Y-16626000D02*
X15764443Y-16611714D01*
X15735871Y-16568857D01*
X15721586Y-16540286D01*
X15707300Y-16497429D01*
X15693014Y-16426000D01*
X15693014Y-16368857D01*
X15707300Y-16297429D01*
X15721586Y-16254571D01*
X15735871Y-16226000D01*
X15764443Y-16183143D01*
X15778728Y-16168857D01*
X15878728Y-16240286D02*
X15893014Y-16226000D01*
X15921586Y-16211714D01*
X15993014Y-16211714D01*
X16021586Y-16226000D01*
X16035871Y-16240286D01*
X16050157Y-16268857D01*
X16050157Y-16297429D01*
X16035871Y-16340286D01*
X15864443Y-16511714D01*
X16050157Y-16511714D01*
X16407300Y-16511714D02*
X16407300Y-16211714D01*
X16535871Y-16511714D02*
X16535871Y-16354571D01*
X16521586Y-16326000D01*
X16493014Y-16311714D01*
X16450157Y-16311714D01*
X16421586Y-16326000D01*
X16407300Y-16340286D01*
X16721586Y-16511714D02*
X16693014Y-16497429D01*
X16678728Y-16483143D01*
X16664443Y-16454571D01*
X16664443Y-16368857D01*
X16678728Y-16340286D01*
X16693014Y-16326000D01*
X16721586Y-16311714D01*
X16764443Y-16311714D01*
X16793014Y-16326000D01*
X16807300Y-16340286D01*
X16821586Y-16368857D01*
X16821586Y-16454571D01*
X16807300Y-16483143D01*
X16793014Y-16497429D01*
X16764443Y-16511714D01*
X16721586Y-16511714D01*
X16993014Y-16511714D02*
X16964443Y-16497429D01*
X16950157Y-16468857D01*
X16950157Y-16211714D01*
X17221586Y-16497429D02*
X17193014Y-16511714D01*
X17135871Y-16511714D01*
X17107300Y-16497429D01*
X17093014Y-16468857D01*
X17093014Y-16354571D01*
X17107300Y-16326000D01*
X17135871Y-16311714D01*
X17193014Y-16311714D01*
X17221586Y-16326000D01*
X17235871Y-16354571D01*
X17235871Y-16383143D01*
X17093014Y-16411714D01*
X17350157Y-16497429D02*
X17378728Y-16511714D01*
X17435871Y-16511714D01*
X17464443Y-16497429D01*
X17478728Y-16468857D01*
X17478728Y-16454571D01*
X17464443Y-16426000D01*
X17435871Y-16411714D01*
X17393014Y-16411714D01*
X17364443Y-16397429D01*
X17350157Y-16368857D01*
X17350157Y-16354571D01*
X17364443Y-16326000D01*
X17393014Y-16311714D01*
X17435871Y-16311714D01*
X17464443Y-16326000D01*
X17578728Y-16626000D02*
X17593014Y-16611714D01*
X17621586Y-16568857D01*
X17635871Y-16540286D01*
X17650157Y-16497429D01*
X17664443Y-16426000D01*
X17664443Y-16368857D01*
X17650157Y-16297429D01*
X17635871Y-16254571D01*
X17621586Y-16226000D01*
X17593014Y-16183143D01*
X17578728Y-16168857D01*
X10787500Y-16619600D02*
X11092300Y-16924400D01*
X11092300Y-16619600D02*
X10787500Y-16924400D01*
X10939900Y-16924400D02*
X11092300Y-16772000D01*
X10939900Y-16619600D01*
X10787500Y-16772000D01*
X10939900Y-16924400D01*
X11350157Y-16607714D02*
X11535871Y-16607714D01*
X11435871Y-16722000D01*
X11478728Y-16722000D01*
X11507300Y-16736286D01*
X11521586Y-16750571D01*
X11535871Y-16779143D01*
X11535871Y-16850572D01*
X11521586Y-16879143D01*
X11507300Y-16893429D01*
X11478728Y-16907714D01*
X11393014Y-16907714D01*
X11364443Y-16893429D01*
X11350157Y-16879143D01*
X11664443Y-16879143D02*
X11678728Y-16893429D01*
X11664443Y-16907714D01*
X11650157Y-16893429D01*
X11664443Y-16879143D01*
X11664443Y-16907714D01*
X11864443Y-16607714D02*
X11893014Y-16607714D01*
X11921586Y-16622000D01*
X11935871Y-16636286D01*
X11950157Y-16664857D01*
X11964443Y-16722000D01*
X11964443Y-16793429D01*
X11950157Y-16850572D01*
X11935871Y-16879143D01*
X11921586Y-16893429D01*
X11893014Y-16907714D01*
X11864443Y-16907714D01*
X11835871Y-16893429D01*
X11821586Y-16879143D01*
X11807300Y-16850572D01*
X11793014Y-16793429D01*
X11793014Y-16722000D01*
X11807300Y-16664857D01*
X11821586Y-16636286D01*
X11835871Y-16622000D01*
X11864443Y-16607714D01*
X12235871Y-16607714D02*
X12093014Y-16607714D01*
X12078728Y-16750571D01*
X12093014Y-16736286D01*
X12121586Y-16722000D01*
X12193014Y-16722000D01*
X12221586Y-16736286D01*
X12235871Y-16750571D01*
X12250157Y-16779143D01*
X12250157Y-16850572D01*
X12235871Y-16879143D01*
X12221586Y-16893429D01*
X12193014Y-16907714D01*
X12121586Y-16907714D01*
X12093014Y-16893429D01*
X12078728Y-16879143D01*
X12378728Y-16907714D02*
X12378728Y-16707714D01*
X12378728Y-16736286D02*
X12393014Y-16722000D01*
X12421586Y-16707714D01*
X12464443Y-16707714D01*
X12493014Y-16722000D01*
X12507300Y-16750571D01*
X12507300Y-16907714D01*
X12507300Y-16750571D02*
X12521586Y-16722000D01*
X12550157Y-16707714D01*
X12593014Y-16707714D01*
X12621586Y-16722000D01*
X12635871Y-16750571D01*
X12635871Y-16907714D01*
X12778728Y-16907714D02*
X12778728Y-16707714D01*
X12778728Y-16736286D02*
X12793014Y-16722000D01*
X12821586Y-16707714D01*
X12864443Y-16707714D01*
X12893014Y-16722000D01*
X12907300Y-16750571D01*
X12907300Y-16907714D01*
X12907300Y-16750571D02*
X12921586Y-16722000D01*
X12950157Y-16707714D01*
X12993014Y-16707714D01*
X13021586Y-16722000D01*
X13035871Y-16750571D01*
X13035871Y-16907714D01*
X13621586Y-16593429D02*
X13364443Y-16979143D01*
X14007300Y-16607714D02*
X14035871Y-16607714D01*
X14064443Y-16622000D01*
X14078728Y-16636286D01*
X14093014Y-16664857D01*
X14107300Y-16722000D01*
X14107300Y-16793429D01*
X14093014Y-16850572D01*
X14078728Y-16879143D01*
X14064443Y-16893429D01*
X14035871Y-16907714D01*
X14007300Y-16907714D01*
X13978728Y-16893429D01*
X13964443Y-16879143D01*
X13950157Y-16850572D01*
X13935871Y-16793429D01*
X13935871Y-16722000D01*
X13950157Y-16664857D01*
X13964443Y-16636286D01*
X13978728Y-16622000D01*
X14007300Y-16607714D01*
X14235871Y-16879143D02*
X14250157Y-16893429D01*
X14235871Y-16907714D01*
X14221586Y-16893429D01*
X14235871Y-16879143D01*
X14235871Y-16907714D01*
X14535871Y-16907714D02*
X14364443Y-16907714D01*
X14450157Y-16907714D02*
X14450157Y-16607714D01*
X14421586Y-16650571D01*
X14393014Y-16679143D01*
X14364443Y-16693429D01*
X14650157Y-16636286D02*
X14664443Y-16622000D01*
X14693014Y-16607714D01*
X14764443Y-16607714D01*
X14793014Y-16622000D01*
X14807300Y-16636286D01*
X14821586Y-16664857D01*
X14821586Y-16693429D01*
X14807300Y-16736286D01*
X14635871Y-16907714D01*
X14821586Y-16907714D01*
X15007300Y-16607714D02*
X15035871Y-16607714D01*
X15064443Y-16622000D01*
X15078728Y-16636286D01*
X15093014Y-16664857D01*
X15107300Y-16722000D01*
X15107300Y-16793429D01*
X15093014Y-16850572D01*
X15078728Y-16879143D01*
X15064443Y-16893429D01*
X15035871Y-16907714D01*
X15007300Y-16907714D01*
X14978728Y-16893429D01*
X14964443Y-16879143D01*
X14950157Y-16850572D01*
X14935871Y-16793429D01*
X14935871Y-16722000D01*
X14950157Y-16664857D01*
X14964443Y-16636286D01*
X14978728Y-16622000D01*
X15007300Y-16607714D01*
X15221586Y-16607714D02*
X15221586Y-16664857D01*
X15335871Y-16607714D02*
X15335871Y-16664857D01*
X15778728Y-17022000D02*
X15764443Y-17007714D01*
X15735871Y-16964857D01*
X15721586Y-16936286D01*
X15707300Y-16893429D01*
X15693014Y-16822000D01*
X15693014Y-16764857D01*
X15707300Y-16693429D01*
X15721586Y-16650571D01*
X15735871Y-16622000D01*
X15764443Y-16579143D01*
X15778728Y-16564857D01*
X16021586Y-16707714D02*
X16021586Y-16907714D01*
X15950157Y-16593429D02*
X15878728Y-16807714D01*
X16064443Y-16807714D01*
X16407300Y-16907714D02*
X16407300Y-16607714D01*
X16535871Y-16907714D02*
X16535871Y-16750571D01*
X16521586Y-16722000D01*
X16493014Y-16707714D01*
X16450157Y-16707714D01*
X16421586Y-16722000D01*
X16407300Y-16736286D01*
X16721586Y-16907714D02*
X16693014Y-16893429D01*
X16678728Y-16879143D01*
X16664443Y-16850572D01*
X16664443Y-16764857D01*
X16678728Y-16736286D01*
X16693014Y-16722000D01*
X16721586Y-16707714D01*
X16764443Y-16707714D01*
X16793014Y-16722000D01*
X16807300Y-16736286D01*
X16821586Y-16764857D01*
X16821586Y-16850572D01*
X16807300Y-16879143D01*
X16793014Y-16893429D01*
X16764443Y-16907714D01*
X16721586Y-16907714D01*
X16993014Y-16907714D02*
X16964443Y-16893429D01*
X16950157Y-16864857D01*
X16950157Y-16607714D01*
X17221586Y-16893429D02*
X17193014Y-16907714D01*
X17135871Y-16907714D01*
X17107300Y-16893429D01*
X17093014Y-16864857D01*
X17093014Y-16750571D01*
X17107300Y-16722000D01*
X17135871Y-16707714D01*
X17193014Y-16707714D01*
X17221586Y-16722000D01*
X17235871Y-16750571D01*
X17235871Y-16779143D01*
X17093014Y-16807714D01*
X17350157Y-16893429D02*
X17378728Y-16907714D01*
X17435871Y-16907714D01*
X17464443Y-16893429D01*
X17478728Y-16864857D01*
X17478728Y-16850572D01*
X17464443Y-16822000D01*
X17435871Y-16807714D01*
X17393014Y-16807714D01*
X17364443Y-16793429D01*
X17350157Y-16764857D01*
X17350157Y-16750571D01*
X17364443Y-16722000D01*
X17393014Y-16707714D01*
X17435871Y-16707714D01*
X17464443Y-16722000D01*
X17578728Y-17022000D02*
X17593014Y-17007714D01*
X17621586Y-16964857D01*
X17635871Y-16936286D01*
X17650157Y-16893429D01*
X17664443Y-16822000D01*
X17664443Y-16764857D01*
X17650157Y-16693429D01*
X17635871Y-16650571D01*
X17621586Y-16622000D01*
X17593014Y-16579143D01*
X17578728Y-16564857D01*
M02*
