M48
;DRILL file {KiCad (5.0.1)-3} date 2019/2/24 上午 05:12:30
;FORMAT={-:-/ absolute / metric / decimal}
FMAT,2
METRIC,TZ
T1C0.200
T2C0.400
T3C0.600
T4C0.800
T5C0.850
T6C0.920
T7C1.000
T8C2.330
T9C3.048
%
G90
G05
M71
T1
X124.2Y-86.6
X124.2Y-87.6
X124.2Y-88.6
X125.2Y-86.6
X125.2Y-87.6
X125.2Y-88.6
X126.2Y-86.6
X126.2Y-87.6
X126.2Y-88.6
T2
X121.5Y-85.7
X138.198Y-77.765
X138.298Y-98.265
X138.998Y-78.665
X139.898Y-79.565
X168.498Y-79.565
X169.298Y-78.665
X170.098Y-77.765
X173.198Y-92.965
X173.498Y-88.865
T3
X117.2Y-79.5
X117.2Y-80.8
X117.2Y-82.1
X117.2Y-83.4
X117.4Y-93.2
X117.4Y-94.5
X117.4Y-95.8
X118.898Y-98.165
X118.898Y-99.665
X118.898Y-101.115
X118.898Y-102.665
X118.898Y-104.165
X118.898Y-106.665
X118.898Y-108.165
X118.898Y-109.665
X118.898Y-111.165
X118.898Y-112.665
X120.6Y-84.6
X121.3Y-94.5
X121.55Y-89.75
X122.75Y-91.
X126.4Y-83.5
X129.05Y-91.
X134.8Y-89.75
X135.7Y-91.05
X137.05Y-91.05
X143.998Y-110.365
X145.398Y-91.465
X145.398Y-95.565
X146.398Y-96.865
X146.598Y-90.065
X146.698Y-113.065
X149.498Y-100.965
X154.598Y-95.865
X154.598Y-106.065
X157.598Y-92.765
X159.098Y-92.165
X159.35Y-114.35
X159.698Y-100.965
X162.25Y-117.25
X163.898Y-81.665
X164.998Y-96.965
X165.898Y-109.565
X169.398Y-118.465
X170.898Y-97.265
X171.798Y-92.965
X172.198Y-87.565
X173.048Y-90.365
X173.341Y-120.322
X173.498Y-118.065
T4
X127.348Y-115.565
X127.348Y-118.065
X134.698Y-115.565
X134.698Y-118.065
X127.358Y-108.325
X127.358Y-110.825
X152.198Y-116.165
X157.078Y-116.165
X158.598Y-85.665
X163.478Y-85.665
T5
X116.298Y-77.665
X121.298Y-77.665
T6
X117.126Y-87.035
X117.126Y-89.535
X119.126Y-87.035
X119.126Y-89.535
T7
X138.938Y-123.825
X141.478Y-123.825
X144.018Y-123.825
X146.558Y-123.825
X149.098Y-123.825
X151.638Y-123.825
X154.178Y-123.825
X156.718Y-123.825
X134.048Y-99.335
X134.048Y-101.875
X134.048Y-104.415
X156.718Y-75.565
X159.258Y-75.565
X161.798Y-75.565
X164.338Y-75.565
X166.878Y-75.565
X169.418Y-75.565
X171.958Y-75.565
X174.498Y-75.565
X169.418Y-93.345
X169.418Y-95.885
X169.418Y-98.425
X169.418Y-100.965
X169.418Y-103.505
X169.418Y-106.045
X169.418Y-108.585
X169.418Y-111.125
X169.418Y-113.665
X169.418Y-116.205
X161.798Y-123.825
X164.338Y-123.825
X166.878Y-123.825
X169.418Y-123.825
X171.958Y-123.825
X174.498Y-123.825
X129.794Y-75.565
X132.334Y-75.565
X134.874Y-75.565
X137.414Y-75.565
X139.954Y-75.565
X142.494Y-75.565
X145.034Y-75.565
X147.574Y-75.565
X150.114Y-75.565
X152.654Y-75.565
X141.478Y-117.215
X144.018Y-117.215
X146.558Y-117.215
X174.625Y-95.885
X174.625Y-98.425
X174.625Y-100.965
X177.165Y-95.885
X177.165Y-98.425
X177.165Y-100.965
X173.228Y-107.8
X173.228Y-114.3
X177.728Y-107.8
X177.728Y-114.3
T8
X114.416Y-82.265
X114.416Y-94.305
T9
X177.038Y-118.745
X124.968Y-123.825
X177.038Y-90.805
X126.238Y-75.565
T3
X115.298Y-75.315G85X115.298Y-74.615
G05
X122.298Y-74.615G85X122.298Y-75.315
G05
T4
X115.612Y-117.645G85X115.612Y-119.845
G05
X117.312Y-123.545G85X119.512Y-123.545
G05
X121.412Y-117.445G85X121.412Y-120.045
G05
T0
M30
